<?xml version="1.0" encoding="utf-8"?>
<!-- Generator: Adobe Illustrator 25.2.1, SVG Export Plug-In . SVG Version: 6.00 Build 0)  -->
<svg version="1.1" xmlns="http://www.w3.org/2000/svg" xmlns:xlink="http://www.w3.org/1999/xlink" x="0px" y="0px"
	 viewBox="0 0 1197.75 1196.33" style="enable-background:new 0 0 1197.75 1196.33;" xml:space="preserve">
<style type="text/css">
	.st0{fill:none;stroke:#35A8E0;stroke-miterlimit:10;}
	.st1{display:none;}
	.st2{fill:none;stroke:#000000;stroke-miterlimit:10;}
	.st3{fill:#F6EB64;}
	.st4{fill:#F75776;}
	.st5{fill:#1D1D1B;}
	.st6{fill:none;stroke:#1D1D1B;stroke-width:0.5;stroke-miterlimit:10;}
	.st7{fill:#FFFFFF;}
	.st8{fill:#E84639;}
	.st9{fill:#F9E8D5;}
	.st10{fill:#48B6A2;}
	.st11{fill:#29336B;}
	.st12{fill:#9458F4;}
	.st13{opacity:0.2;fill:#009EE2;}
	.st14{opacity:0.19;}
	.st15{fill:#51BFDC;}
	.st16{fill:#6DBC8D;}
	.st17{fill:none;stroke:#F9E8D5;stroke-miterlimit:10;}
	.st18{fill:none;stroke:#35A8E0;stroke-width:0.75;stroke-miterlimit:10;}
	.st19{fill:#35A8E0;}
	.st20{opacity:0.49;}
	.st21{fill:none;stroke:#000000;stroke-width:0.75;stroke-miterlimit:10;}
	.st22{fill:none;stroke:#FFEC00;stroke-width:0.75;stroke-miterlimit:10;}
	.st23{fill:none;stroke:#F6EB64;stroke-width:3;stroke-miterlimit:10;}
	.st24{opacity:0.18;fill:#337787;}
	.st25{opacity:0.2;fill:#FFFFFF;}
	.st26{fill:#7B61FF;}
	.st27{fill:none;stroke:#F75776;stroke-width:50;stroke-linejoin:round;stroke-miterlimit:10;}
	.st28{fill:none;stroke:#000000;stroke-width:18;stroke-miterlimit:10;}
	.st29{fill:#F5F5F5;}
</style>
<g id="guia">
</g>
<g id="Capa_3" class="st1">
</g>
<g id="Capa_4">
</g>
<g id="Capa_1">
	<rect class="st15" width="1197.75" height="1196.33"/>
	<rect x="216.84" y="216.58" class="st24" width="764.07" height="763.16"/>
	<path class="st7" d="M590.57,444.15c-1.64,0-3.12-0.66-4.45-1.99c-1.33-1.33-1.99-2.81-1.99-4.45c0-1.02,0.1-1.94,0.31-2.77
		l72.08-196.92c0.61-2.25,1.89-4.24,3.84-5.98c1.94-1.74,4.65-2.61,8.13-2.61h45.4c3.47,0,6.18,0.88,8.13,2.61
		c1.94,1.74,3.22,3.73,3.83,5.98l71.78,196.92c0.41,0.82,0.61,1.74,0.61,2.77c0,1.64-0.67,3.12-1.99,4.45
		c-1.33,1.33-2.92,1.99-4.76,1.99h-37.73c-3.07,0-5.37-0.77-6.9-2.3c-1.53-1.53-2.51-2.91-2.91-4.14l-11.96-31.29h-81.9
		l-11.66,31.29c-0.41,1.23-1.33,2.61-2.76,4.14c-1.43,1.53-3.89,2.3-7.36,2.3H590.57z M662.65,362.24h57.05l-28.83-80.98
		L662.65,362.24z"/>
	<path class="st7" d="M455.93,706.03c-2.25,0-4.09-0.72-5.52-2.15c-1.43-1.43-2.15-3.27-2.15-5.52V237.1c0-2.25,0.71-4.09,2.15-5.52
		c1.43-1.43,3.27-2.15,5.52-2.15h40.49c2.04,0,3.83,0.72,5.37,2.15c1.53,1.43,2.3,3.27,2.3,5.52v422.61h92.63
		c2.25,0,4.14,0.77,5.67,2.3c1.53,1.54,2.3,3.43,2.3,5.68v30.67c0,2.25-0.77,4.09-2.3,5.52c-1.53,1.43-3.43,2.15-5.67,2.15H455.93z"
		/>
	<path class="st7" d="M653.47,706.03c-2.25,0-4.09-0.72-5.52-2.15c-1.43-1.43-2.15-3.27-2.15-5.52V539.47h-54.6
		c-2.25,0-4.09-0.77-5.52-2.3c-1.44-1.53-2.15-3.32-2.15-5.37v-32.82c0-2.25,0.71-4.09,2.15-5.52c1.43-1.43,3.27-2.15,5.52-2.15
		h165.03c2.25,0,4.09,0.72,5.52,2.15c1.43,1.43,2.15,3.27,2.15,5.52v32.82c0,2.04-0.72,3.83-2.15,5.37c-1.43,1.53-3.27,2.3-5.52,2.3
		h-54.6v158.89c0,2.25-0.72,4.09-2.15,5.52c-1.43,1.43-3.27,2.15-5.52,2.15H653.47z"/>
	<g>
		<g>
			<path class="st7" d="M287.83,539.74c-18.2-0.06-36.4-0.11-54.59-0.14c-2.26-0.01-4.11-0.85-5.54-2.37
				c-1.43-1.52-2.13-3.21-2.13-5.23c0-10.83,0-21.66,0-32.49c0-2.22,0.61-4.57,1.81-7.15c1.2-2.56,2.75-4.83,4.71-6.54
				c47.89-41.78,119.47-42.06,167.33-0.46c1.96,1.7,3.5,3.97,4.71,6.57c1.2,2.6,1.8,4.98,1.81,7.25c0,11.05,0,22.1,0,33.15
				c0,2.06-0.7,3.78-2.13,5.33c-1.43,1.54-3.29,2.4-5.54,2.4c-18.21-0.03-36.41-0.08-54.61-0.14
				C325.04,539.87,306.44,539.8,287.83,539.74z"/>
		</g>
	</g>
	<path class="st7" d="M799.48,706.03c-2.25,0-4.09-0.72-5.52-2.15c-1.43-1.43-2.15-3.27-2.15-5.52V498.98
		c0-2.25,0.71-4.09,2.15-5.52c1.43-1.43,3.27-2.15,5.52-2.15h41.1c2.25,0,4.09,0.72,5.52,2.15c1.43,1.43,2.15,3.27,2.15,5.52v199.38
		c0,2.25-0.72,4.09-2.15,5.52c-1.43,1.43-3.27,2.15-5.52,2.15H799.48z"/>
	<path class="st7" d="M454.61,969.81c-2.05,0-3.84-0.72-5.37-2.15c-1.53-1.43-2.3-3.27-2.3-5.52V762.76c0-2.25,0.77-4.09,2.3-5.52
		c1.53-1.43,3.32-2.15,5.37-2.15h33.13c3.27,0,5.77,0.88,7.51,2.61c1.74,1.74,2.81,3.12,3.22,4.14l53.99,96.92l53.99-96.92
		c0.61-1.02,1.69-2.4,3.22-4.14s4.04-2.61,7.51-2.61h32.82c2.25,0,4.14,0.72,5.68,2.15c1.53,1.43,2.3,3.27,2.3,5.52v199.38
		c0,2.25-0.77,4.09-2.3,5.52c-1.54,1.43-3.43,2.15-5.68,2.15h-36.5c-2.25,0-4.14-0.72-5.67-2.15c-1.53-1.43-2.3-3.27-2.3-5.52
		V847.11l-34.66,64.11c-0.82,1.84-2.05,3.48-3.68,4.91c-1.64,1.44-3.89,2.15-6.75,2.15h-15.95c-2.86,0-5.11-0.71-6.75-2.15
		c-1.64-1.43-2.97-3.07-3.99-4.91l-34.66-64.11v115.03c0,2.25-0.72,4.09-2.15,5.52c-1.43,1.43-3.27,2.15-5.52,2.15H454.61z"/>
	<path class="st7" d="M688.35,969.81c-1.64,0-3.12-0.66-4.45-1.99c-1.33-1.33-1.99-2.81-1.99-4.45c0-1.02,0.1-1.94,0.31-2.77
		l72.08-196.92c0.61-2.25,1.89-4.24,3.84-5.98c1.94-1.74,4.65-2.61,8.13-2.61h45.4c3.47,0,6.18,0.88,8.13,2.61
		c1.94,1.74,3.22,3.73,3.83,5.98L895.4,960.6c0.41,0.82,0.61,1.74,0.61,2.77c0,1.64-0.67,3.12-1.99,4.45
		c-1.33,1.33-2.92,1.99-4.76,1.99h-37.73c-3.07,0-5.37-0.77-6.9-2.3c-1.53-1.53-2.51-2.91-2.91-4.14l-11.96-31.29h-81.9
		l-11.66,31.29c-0.41,1.23-1.33,2.61-2.76,4.14c-1.43,1.53-3.89,2.3-7.36,2.3H688.35z M760.43,887.91h57.05l-28.83-80.98
		L760.43,887.91z"/>
	<g>
		<path class="st7" d="M924.54,969.81c-2.25,0-4.09-0.72-5.52-2.15c-1.43-1.43-2.15-3.27-2.15-5.52v-37.74
			c0-2.24,0.71-4.14,2.15-5.67c1.43-1.53,3.27-2.3,5.52-2.3h37.73c2.04,0,3.83,0.77,5.37,2.3c1.53,1.53,2.3,3.43,2.3,5.67v37.74
			c0,2.25-0.77,4.09-2.3,5.52c-1.53,1.43-3.32,2.15-5.37,2.15H924.54z"/>
		<path class="st7" d="M925.76,902.02c-2.25,0-4.09-0.77-5.52-2.3c-1.43-1.53-2.15-3.32-2.15-5.37V762.76
			c0-2.25,0.71-4.09,2.15-5.52c1.43-1.43,3.27-2.15,5.52-2.15h35.28c2.04,0,3.83,0.72,5.37,2.15c1.53,1.43,2.3,3.27,2.3,5.52v131.59
			c0,2.04-0.77,3.83-2.3,5.37s-3.32,2.3-5.37,2.3H925.76z"/>
	</g>
	<path class="st7" d="M315.75,797.1c-18.32,0-34.36-3.01-48.1-9.01c-13.74-6.01-24.38-15.27-31.91-27.79
		c-7.54-12.52-11.3-28.45-11.3-47.8V587.89c0-2.24,0.71-4.07,2.14-5.5c1.42-1.42,3.25-2.14,5.5-2.14h39.4c2.24,0,4.07,0.72,5.5,2.14
		c1.42,1.43,2.14,3.26,2.14,5.5v124.3c0,13.24,3.21,23.16,9.62,29.78c6.41,6.62,15.42,9.93,27.03,9.93c11.4,0,20.31-3.31,26.72-9.93
		c6.41-6.61,9.62-16.54,9.62-29.78v-124.3c0-2.24,0.76-4.07,2.29-5.5c1.53-1.42,3.31-2.14,5.34-2.14h39.7
		c2.03,0,3.82,0.72,5.34,2.14c1.53,1.43,2.29,3.26,2.29,5.5V712.5c0,19.35-3.77,35.28-11.3,47.8
		c-7.54,12.52-18.12,21.79-31.76,27.79C350.36,794.09,334.28,797.1,315.75,797.1z"/>
	<path class="st25" d="M538.26,1197.34c-18.32,0-34.36-3.01-48.1-9.01c-13.74-6.01-24.38-15.27-31.91-27.79
		c-7.54-12.52-11.3-28.45-11.3-47.8V988.13c0-2.24,0.71-4.07,2.14-5.5c1.42-1.42,3.25-2.14,5.5-2.14h39.4c2.24,0,4.07,0.72,5.5,2.14
		c1.42,1.43,2.14,3.26,2.14,5.5v124.3c0,13.24,3.21,23.16,9.62,29.78c6.41,6.62,15.42,9.93,27.03,9.93c11.4,0,20.31-3.31,26.72-9.93
		c6.41-6.61,9.62-16.54,9.62-29.78v-124.3c0-2.24,0.76-4.07,2.29-5.5c1.53-1.42,3.31-2.14,5.34-2.14h39.7
		c2.03,0,3.82,0.72,5.34,2.14c1.53,1.43,2.29,3.26,2.29,5.5v124.61c0,19.35-3.77,35.28-11.3,47.8
		c-7.54,12.52-18.12,21.79-31.76,27.79C572.87,1194.33,556.79,1197.34,538.26,1197.34z"/>
	<path class="st25" d="M0,671.58c0-18.32,3.01-34.36,9.01-48.1c6.01-13.74,15.27-24.38,27.79-31.91c12.52-7.54,28.45-11.3,47.8-11.3
		h124.61c2.24,0,4.07,0.71,5.5,2.14c1.42,1.42,2.14,3.25,2.14,5.5v39.4c0,2.24-0.72,4.07-2.14,5.5c-1.43,1.42-3.26,2.14-5.5,2.14
		H84.9c-13.24,0-23.16,3.21-29.78,9.62c-6.62,6.41-9.93,15.42-9.93,27.03c0,11.4,3.31,20.31,9.93,26.72
		c6.61,6.41,16.54,9.62,29.78,9.62h124.3c2.24,0,4.07,0.76,5.5,2.29c1.42,1.53,2.14,3.31,2.14,5.34v39.7c0,2.03-0.72,3.82-2.14,5.34
		c-1.43,1.53-3.26,2.29-5.5,2.29H84.6c-19.35,0-35.28-3.77-47.8-11.3c-12.52-7.54-21.79-18.12-27.79-31.76
		C3.01,706.19,0,690.1,0,671.58z"/>
	<path class="st25" d="M629.58,0c18.32,0,34.36,3.01,48.1,9.01c13.74,6.01,24.38,15.27,31.91,27.79c7.54,12.52,11.3,28.45,11.3,47.8
		l0,124.61c0,2.24-0.71,4.07-2.14,5.5c-1.42,1.42-3.25,2.14-5.5,2.14l-39.4,0c-2.24,0-4.07-0.72-5.5-2.14
		c-1.42-1.43-2.14-3.26-2.14-5.5l0-124.3c0-13.24-3.21-23.16-9.62-29.78c-6.41-6.62-15.42-9.93-27.03-9.93
		c-11.4,0-20.31,3.31-26.72,9.93c-6.41,6.61-9.62,16.54-9.62,29.78l0,124.3c0,2.24-0.76,4.07-2.29,5.5
		c-1.53,1.42-3.31,2.14-5.34,2.14l-39.7,0c-2.03,0-3.82-0.72-5.34-2.14c-1.53-1.43-2.29-3.26-2.29-5.5V84.6
		c0-19.35,3.77-35.28,11.3-47.8c7.54-12.52,18.12-21.79,31.76-27.79C594.97,3.01,611.05,0,629.58,0z"/>
	<path class="st25" d="M1197.75,878.49c0,18.32-3.01,34.36-9.01,48.1c-6.01,13.74-15.27,24.38-27.79,31.91
		c-12.52,7.54-28.45,11.3-47.8,11.3H988.55c-2.24,0-4.07-0.71-5.5-2.14c-1.42-1.42-2.14-3.25-2.14-5.5v-39.4
		c0-2.24,0.72-4.07,2.14-5.5c1.43-1.42,3.26-2.14,5.5-2.14h124.3c13.24,0,23.16-3.21,29.78-9.62c6.62-6.41,9.93-15.42,9.93-27.03
		c0-11.4-3.31-20.31-9.93-26.72c-6.61-6.41-16.54-9.62-29.78-9.62h-124.3c-2.24,0-4.07-0.76-5.5-2.29
		c-1.42-1.53-2.14-3.31-2.14-5.34v-39.7c0-2.03,0.72-3.82,2.14-5.34c1.43-1.53,3.26-2.29,5.5-2.29h124.61
		c19.35,0,35.28,3.77,47.8,11.3c12.52,7.54,21.79,18.12,27.79,31.76C1194.75,843.88,1197.75,859.97,1197.75,878.49z"/>
</g>
</svg>
