<?xml version="1.0" encoding="utf-8"?>
<!-- Generator: Adobe Illustrator 25.2.1, SVG Export Plug-In . SVG Version: 6.00 Build 0)  -->
<svg version="1.1" xmlns="http://www.w3.org/2000/svg" xmlns:xlink="http://www.w3.org/1999/xlink" x="0px" y="0px"
	 viewBox="0 0 1209.6 1213.46" style="enable-background:new 0 0 1209.6 1213.46;" xml:space="preserve">
<style type="text/css">
	.st0{fill:none;stroke:#35A8E0;stroke-miterlimit:10;}
	.st1{display:none;}
	.st2{fill:none;stroke:#000000;stroke-miterlimit:10;}
	.st3{fill:#F6EB64;}
	.st4{fill:#F75776;}
	.st5{fill:#1D1D1B;}
	.st6{fill:none;stroke:#1D1D1B;stroke-width:0.5;stroke-miterlimit:10;}
	.st7{fill:#FFFFFF;}
	.st8{fill:#E84639;}
	.st9{fill:#F9E8D5;}
	.st10{fill:#48B6A2;}
	.st11{fill:#29336B;}
	.st12{fill:#9458F4;}
	.st13{opacity:0.2;fill:#009EE2;}
	.st14{opacity:0.19;}
	.st15{fill:#51BFDC;}
	.st16{fill:#6DBC8D;}
	.st17{fill:none;stroke:#F9E8D5;stroke-miterlimit:10;}
	.st18{fill:none;stroke:#35A8E0;stroke-width:0.75;stroke-miterlimit:10;}
	.st19{fill:#35A8E0;}
	.st20{opacity:0.49;}
	.st21{fill:none;stroke:#000000;stroke-width:0.75;stroke-miterlimit:10;}
	.st22{fill:none;stroke:#FFEC00;stroke-width:0.75;stroke-miterlimit:10;}
	.st23{fill:none;stroke:#F6EB64;stroke-width:3;stroke-miterlimit:10;}
	.st24{fill:none;stroke:#F75776;stroke-width:50;stroke-linejoin:round;stroke-miterlimit:10;}
	.st25{fill:none;stroke:#000000;stroke-width:18;stroke-miterlimit:10;}
	.st26{fill:#F5F5F5;}
</style>
<g id="guia">
</g>
<g id="Capa_3" class="st1">
</g>
<g id="Capa_4">
</g>
<g id="Capa_1">
	<rect x="-53.36" y="-18.16" class="st16" width="1316.33" height="1296"/>
	<g>
		<path class="st26" d="M136.79,874.75c-0.59,0-1.08-0.2-1.47-0.59c-0.39-0.39-0.56-0.88-0.49-1.47l1.76-11.86h-9.7
			c-0.65,0-1.18-0.2-1.57-0.59c-0.39-0.39-0.59-0.91-0.59-1.57v-3.33c0-0.65,0.2-1.18,0.59-1.57c0.39-0.39,0.91-0.59,1.57-0.59
			h10.88l2.55-17.25h-10.88c-0.65,0-1.18-0.2-1.57-0.59c-0.39-0.39-0.59-0.91-0.59-1.57v-3.33c0-0.65,0.2-1.18,0.59-1.57
			c0.39-0.39,0.91-0.59,1.57-0.59h12.05l1.76-11.86c0.13-0.52,0.36-1,0.69-1.42c0.33-0.42,0.82-0.64,1.47-0.64h3.63
			c0.59,0,1.08,0.2,1.47,0.59c0.39,0.39,0.55,0.88,0.49,1.47l-1.76,11.86h14.5l1.76-11.86c0.13-0.52,0.36-1,0.69-1.42
			c0.33-0.42,0.82-0.64,1.47-0.64h3.63c0.59,0,1.08,0.2,1.47,0.59c0.39,0.39,0.55,0.88,0.49,1.47l-1.76,11.86h9.51
			c0.65,0,1.19,0.2,1.62,0.59c0.42,0.39,0.64,0.92,0.64,1.57v3.33c0,0.65-0.21,1.18-0.64,1.57c-0.42,0.39-0.96,0.59-1.62,0.59
			h-10.58l-2.55,17.25h10.58c0.65,0,1.19,0.2,1.62,0.59c0.42,0.39,0.64,0.92,0.64,1.57v3.33c0,0.65-0.21,1.18-0.64,1.57
			c-0.43,0.39-0.96,0.59-1.62,0.59h-11.76l-1.76,11.86c-0.2,1.37-0.95,2.06-2.25,2.06h-3.63c-0.59,0-1.08-0.2-1.47-0.59
			c-0.39-0.39-0.56-0.88-0.49-1.47l1.76-11.86h-14.41l-1.76,11.86c-0.2,1.37-0.95,2.06-2.25,2.06H136.79z M145.61,853.19h14.41
			l2.55-17.25h-14.41L145.61,853.19z"/>
		<path class="st26" d="M218.33,879.55c-5.42,0-10.03-1.09-13.82-3.28c-3.79-2.19-6.68-5.06-8.67-8.62
			c-1.99-3.56-2.99-7.43-2.99-11.61c0-1.96,0.25-3.84,0.74-5.63c0.49-1.8,1.11-3.49,1.86-5.1c0.75-1.6,1.5-3.04,2.25-4.31
			c0.75-1.27,1.42-2.3,2.01-3.09l18.62-25.97c0.33-0.33,0.72-0.74,1.18-1.23c0.46-0.49,1.14-0.73,2.06-0.73h5.19
			c0.59,0,1.06,0.21,1.42,0.64c0.36,0.43,0.54,0.93,0.54,1.52c0,0.26-0.03,0.51-0.1,0.74c-0.07,0.23-0.16,0.41-0.29,0.54
			l-14.31,19.99c0.78-0.26,1.68-0.44,2.7-0.54c1.01-0.1,1.97-0.15,2.89-0.15c3.59,0.07,6.86,0.72,9.8,1.96
			c2.94,1.24,5.47,2.92,7.59,5.05c2.12,2.12,3.74,4.57,4.85,7.35c1.11,2.78,1.67,5.73,1.67,8.87c0,4.12-0.98,7.97-2.94,11.56
			c-1.96,3.59-4.82,6.5-8.57,8.72C228.24,878.44,223.69,879.55,218.33,879.55z M218.23,871.22c2.74,0,5.29-0.59,7.64-1.76
			c2.35-1.18,4.26-2.89,5.73-5.14s2.21-5.01,2.21-8.28c0-3.33-0.72-6.12-2.16-8.38c-1.44-2.25-3.35-3.95-5.73-5.1
			c-2.39-1.14-4.95-1.72-7.69-1.72s-5.29,0.57-7.64,1.72c-2.35,1.14-4.26,2.84-5.73,5.1s-2.21,5.05-2.21,8.38
			c0,3.27,0.74,6.03,2.21,8.28s3.38,3.97,5.73,5.14C212.94,870.63,215.49,871.22,218.23,871.22z"/>
		<path class="st26" d="M273.11,879.55c-3.59,0-6.7-0.64-9.31-1.91c-2.61-1.27-4.75-3-6.42-5.19c-1.67-2.19-2.91-4.69-3.72-7.5
			c-0.82-2.81-1.29-5.78-1.42-8.92c-0.07-1.04-0.1-2.02-0.1-2.94c0-0.91,0.03-1.89,0.1-2.94c0.13-3.07,0.6-6.01,1.42-8.82
			c0.82-2.81,2.06-5.32,3.72-7.55c1.67-2.22,3.81-3.97,6.42-5.24c2.61-1.27,5.72-1.91,9.31-1.91c3.85,0,7.06,0.69,9.6,2.06
			c2.55,1.37,4.64,3.07,6.27,5.1v-22.54c0-0.65,0.21-1.19,0.64-1.62c0.42-0.42,0.96-0.64,1.62-0.64h4.7c0.65,0,1.19,0.21,1.62,0.64
			c0.42,0.43,0.64,0.96,0.64,1.62v65.07c0,0.65-0.21,1.19-0.64,1.62c-0.43,0.43-0.96,0.64-1.62,0.64h-4.41
			c-0.72,0-1.27-0.21-1.67-0.64c-0.39-0.42-0.59-0.96-0.59-1.62v-4.12c-1.63,2.09-3.76,3.84-6.37,5.24
			C280.3,878.85,277.03,879.55,273.11,879.55z M275.17,871.61c3.27,0,5.88-0.75,7.84-2.25c1.96-1.5,3.43-3.41,4.41-5.73
			c0.98-2.32,1.5-4.69,1.57-7.1c0.06-1.04,0.1-2.3,0.1-3.77c0-1.47-0.03-2.73-0.1-3.77c-0.07-2.29-0.6-4.54-1.62-6.76
			c-1.01-2.22-2.52-4.05-4.51-5.49c-1.99-1.44-4.56-2.16-7.69-2.16c-3.33,0-5.98,0.74-7.94,2.21s-3.37,3.4-4.21,5.78
			c-0.85,2.39-1.34,4.95-1.47,7.69c-0.07,1.9-0.07,3.79,0,5.68c0.13,2.74,0.62,5.31,1.47,7.69c0.85,2.39,2.25,4.31,4.21,5.78
			S271.84,871.61,275.17,871.61z"/>
		<path class="st26" d="M337.99,879.55c-3.92,0-7.19-0.7-9.8-2.11c-2.61-1.4-4.7-3.15-6.27-5.24v4.12c0,0.65-0.21,1.19-0.64,1.62
			c-0.42,0.43-0.96,0.64-1.62,0.64h-4.51c-0.65,0-1.19-0.21-1.62-0.64c-0.43-0.42-0.64-0.96-0.64-1.62v-65.07
			c0-0.65,0.21-1.19,0.64-1.62c0.42-0.42,0.96-0.64,1.62-0.64h4.7c0.72,0,1.27,0.21,1.67,0.64c0.39,0.43,0.59,0.96,0.59,1.62v22.54
			c1.63-2.02,3.74-3.72,6.32-5.1c2.58-1.37,5.77-2.06,9.56-2.06c3.66,0,6.78,0.64,9.36,1.91c2.58,1.27,4.7,3.02,6.37,5.24
			c1.67,2.22,2.92,4.74,3.77,7.55c0.85,2.81,1.31,5.75,1.37,8.82c0.06,1.05,0.1,2.03,0.1,2.94c0,0.92-0.03,1.9-0.1,2.94
			c-0.07,3.14-0.52,6.11-1.37,8.92c-0.85,2.81-2.11,5.31-3.77,7.5c-1.67,2.19-3.79,3.92-6.37,5.19
			C344.76,878.91,341.64,879.55,337.99,879.55z M335.93,871.61c3.4,0,6.06-0.74,7.99-2.21c1.93-1.47,3.32-3.4,4.17-5.78
			c0.85-2.38,1.34-4.95,1.47-7.69c0.06-1.89,0.06-3.79,0-5.68c-0.13-2.74-0.62-5.31-1.47-7.69c-0.85-2.38-2.24-4.31-4.17-5.78
			c-1.93-1.47-4.59-2.21-7.99-2.21c-3.07,0-5.62,0.72-7.64,2.16c-2.03,1.44-3.54,3.27-4.56,5.49c-1.01,2.22-1.55,4.48-1.62,6.76
			c-0.07,1.05-0.1,2.3-0.1,3.77c0,1.47,0.03,2.73,0.1,3.77c0.13,2.42,0.67,4.79,1.62,7.1c0.95,2.32,2.42,4.23,4.41,5.73
			C330.13,870.86,332.73,871.61,335.93,871.61z"/>
		<path class="st26" d="M391.69,879.55c-4.64,0-8.64-0.9-12-2.7c-3.37-1.8-5.96-4.38-7.79-7.74c-1.83-3.36-2.81-7.4-2.94-12.1
			c-0.07-0.98-0.1-2.29-0.1-3.92c0-1.63,0.03-2.94,0.1-3.92c0.13-4.7,1.11-8.74,2.94-12.1c1.83-3.36,4.42-5.94,7.79-7.74
			c3.36-1.8,7.37-2.7,12-2.7c3.79,0,7.04,0.52,9.75,1.57c2.71,1.05,4.95,2.39,6.71,4.02c1.76,1.63,3.09,3.4,3.97,5.29
			c0.88,1.9,1.36,3.69,1.42,5.39c0.06,0.65-0.13,1.18-0.59,1.57c-0.46,0.39-1.01,0.59-1.67,0.59h-4.7c-0.65,0-1.14-0.15-1.47-0.44
			c-0.33-0.29-0.65-0.8-0.98-1.52c-1.18-3.2-2.78-5.46-4.8-6.76c-2.03-1.31-4.54-1.96-7.55-1.96c-3.92,0-7.1,1.21-9.55,3.63
			c-2.45,2.42-3.77,6.31-3.97,11.66c-0.07,2.35-0.07,4.64,0,6.86c0.2,5.42,1.52,9.33,3.97,11.71c2.45,2.39,5.63,3.58,9.55,3.58
			c3,0,5.52-0.65,7.55-1.96c2.02-1.31,3.63-3.56,4.8-6.76c0.33-0.72,0.65-1.22,0.98-1.52c0.33-0.29,0.82-0.44,1.47-0.44h4.7
			c0.65,0,1.21,0.2,1.67,0.59c0.46,0.39,0.65,0.92,0.59,1.57c-0.07,1.37-0.36,2.78-0.88,4.21c-0.52,1.44-1.36,2.89-2.5,4.36
			c-1.14,1.47-2.56,2.78-4.26,3.92c-1.7,1.14-3.74,2.06-6.12,2.74C397.39,879.21,394.69,879.55,391.69,879.55z"/>
		<path class="st26" d="M449.11,879.55c-3.79,0-7.27-0.48-10.44-1.42s-5.88-2.32-8.13-4.12s-4-3.97-5.24-6.52
			c-1.24-2.55-1.86-5.42-1.86-8.62c0-3.98,0.96-7.41,2.89-10.29c1.93-2.87,4.49-5.06,7.69-6.57c-2.55-1.5-4.54-3.46-5.98-5.88
			c-1.44-2.42-2.16-5.29-2.16-8.62c0-3.92,0.96-7.24,2.89-9.95c1.93-2.71,4.64-4.82,8.13-6.32c3.49-1.5,7.56-2.25,12.2-2.25
			c4.57,0,8.61,0.74,12.1,2.21s6.21,3.58,8.13,6.32c1.93,2.74,2.89,6.04,2.89,9.9c0,3.33-0.72,6.22-2.16,8.67
			c-1.44,2.45-3.4,4.43-5.88,5.93c3.2,1.5,5.77,3.69,7.69,6.57c1.93,2.88,2.89,6.31,2.89,10.29c0,4.25-1.08,7.92-3.23,11.03
			c-2.16,3.1-5.16,5.49-9.02,7.15C458.69,878.72,454.21,879.55,449.11,879.55z M449.11,871.71c3,0,5.72-0.52,8.13-1.57
			c2.42-1.04,4.34-2.53,5.78-4.46c1.44-1.93,2.16-4.2,2.16-6.81c0-2.68-0.72-4.95-2.16-6.81c-1.44-1.86-3.37-3.3-5.78-4.31
			c-2.42-1.01-5.13-1.52-8.13-1.52c-3.01,0-5.73,0.51-8.18,1.52c-2.45,1.01-4.4,2.45-5.83,4.31c-1.44,1.86-2.16,4.13-2.16,6.81
			c0,2.61,0.72,4.88,2.16,6.81c1.44,1.93,3.38,3.41,5.83,4.46C443.38,871.19,446.11,871.71,449.11,871.71z M449.11,838.49
			c2.48,0,4.79-0.46,6.91-1.37c2.12-0.91,3.82-2.16,5.1-3.72c1.27-1.57,1.91-3.46,1.91-5.68c0-2.22-0.6-4.15-1.81-5.78
			c-1.21-1.63-2.88-2.89-5-3.77s-4.49-1.32-7.1-1.32c-2.61,0-4.98,0.44-7.11,1.32s-3.81,2.14-5.05,3.77
			c-1.24,1.63-1.86,3.56-1.86,5.78c0,2.29,0.62,4.23,1.86,5.83c1.24,1.6,2.92,2.83,5.05,3.67
			C444.13,838.06,446.5,838.49,449.11,838.49z"/>
		<path class="st26" d="M506.15,879.55c-3.59,0-6.7-0.64-9.31-1.91c-2.61-1.27-4.75-3-6.42-5.19c-1.67-2.19-2.91-4.69-3.72-7.5
			c-0.82-2.81-1.29-5.78-1.42-8.92c-0.07-1.04-0.1-2.02-0.1-2.94c0-0.91,0.03-1.89,0.1-2.94c0.13-3.07,0.6-6.01,1.42-8.82
			c0.82-2.81,2.06-5.32,3.72-7.55c1.67-2.22,3.81-3.97,6.42-5.24c2.61-1.27,5.72-1.91,9.31-1.91c3.85,0,7.06,0.69,9.6,2.06
			c2.55,1.37,4.64,3.07,6.27,5.1v-22.54c0-0.65,0.21-1.19,0.64-1.62c0.42-0.42,0.96-0.64,1.62-0.64h4.7c0.65,0,1.19,0.21,1.62,0.64
			c0.42,0.43,0.64,0.96,0.64,1.62v65.07c0,0.65-0.21,1.19-0.64,1.62c-0.43,0.43-0.96,0.64-1.62,0.64h-4.41
			c-0.72,0-1.27-0.21-1.67-0.64c-0.39-0.42-0.59-0.96-0.59-1.62v-4.12c-1.63,2.09-3.76,3.84-6.37,5.24
			C513.34,878.85,510.07,879.55,506.15,879.55z M508.21,871.61c3.27,0,5.88-0.75,7.84-2.25c1.96-1.5,3.43-3.41,4.41-5.73
			c0.98-2.32,1.5-4.69,1.57-7.1c0.06-1.04,0.1-2.3,0.1-3.77c0-1.47-0.03-2.73-0.1-3.77c-0.07-2.29-0.6-4.54-1.62-6.76
			c-1.01-2.22-2.52-4.05-4.51-5.49c-1.99-1.44-4.56-2.16-7.69-2.16c-3.33,0-5.98,0.74-7.94,2.21s-3.37,3.4-4.21,5.78
			c-0.85,2.39-1.34,4.95-1.47,7.69c-0.07,1.9-0.07,3.79,0,5.68c0.13,2.74,0.62,5.31,1.47,7.69c0.85,2.39,2.25,4.31,4.21,5.78
			S504.87,871.61,508.21,871.61z"/>
		<path class="st26" d="M147.67,997.15c-4.64,0-8.64-0.9-12-2.7c-3.37-1.8-5.96-4.38-7.79-7.74c-1.83-3.36-2.81-7.4-2.94-12.1
			c-0.07-0.98-0.1-2.29-0.1-3.92c0-1.63,0.03-2.94,0.1-3.92c0.13-4.7,1.11-8.74,2.94-12.1c1.83-3.36,4.42-5.94,7.79-7.74
			c3.36-1.8,7.37-2.7,12-2.7c3.79,0,7.04,0.52,9.75,1.57c2.71,1.05,4.95,2.39,6.71,4.02c1.76,1.63,3.09,3.4,3.97,5.29
			c0.88,1.9,1.36,3.69,1.42,5.39c0.06,0.65-0.13,1.18-0.59,1.57c-0.46,0.39-1.01,0.59-1.67,0.59h-4.7c-0.65,0-1.14-0.15-1.47-0.44
			c-0.33-0.29-0.65-0.8-0.98-1.52c-1.18-3.2-2.78-5.46-4.8-6.76c-2.03-1.31-4.54-1.96-7.55-1.96c-3.92,0-7.1,1.21-9.55,3.63
			c-2.45,2.42-3.77,6.31-3.97,11.66c-0.07,2.35-0.07,4.64,0,6.86c0.2,5.42,1.52,9.33,3.97,11.71c2.45,2.39,5.63,3.58,9.55,3.58
			c3,0,5.52-0.65,7.55-1.96c2.02-1.31,3.63-3.56,4.8-6.76c0.33-0.72,0.65-1.22,0.98-1.52c0.33-0.29,0.82-0.44,1.47-0.44h4.7
			c0.65,0,1.21,0.2,1.67,0.59c0.46,0.39,0.65,0.92,0.59,1.57c-0.07,1.37-0.36,2.78-0.88,4.21c-0.52,1.44-1.36,2.89-2.5,4.36
			c-1.14,1.47-2.56,2.78-4.26,3.92c-1.7,1.14-3.74,2.06-6.12,2.74C153.37,996.81,150.68,997.15,147.67,997.15z"/>
		<path class="st26" d="M183.44,996.17c-0.65,0-1.19-0.21-1.62-0.64c-0.43-0.42-0.64-0.96-0.64-1.62v-46.45
			c0-0.65,0.21-1.19,0.64-1.62c0.42-0.42,0.96-0.64,1.62-0.64h4.41c0.65,0,1.19,0.21,1.62,0.64c0.42,0.43,0.64,0.96,0.64,1.62v3.43
			c1.5-2.02,3.4-3.64,5.68-4.85c2.29-1.21,5.03-1.81,8.23-1.81c7.38-0.06,12.61,2.94,15.68,9.02c1.5-2.74,3.69-4.93,6.57-6.57
			c2.87-1.63,6.14-2.45,9.8-2.45c3.4,0,6.48,0.78,9.26,2.35c2.78,1.57,4.96,3.94,6.57,7.1c1.6,3.17,2.4,7.14,2.4,11.91v28.32
			c0,0.65-0.21,1.19-0.64,1.62c-0.43,0.43-0.96,0.64-1.62,0.64h-4.61c-0.65,0-1.19-0.21-1.62-0.64c-0.43-0.42-0.64-0.96-0.64-1.62
			v-27.44c0-3.66-0.52-6.53-1.57-8.62c-1.05-2.09-2.45-3.56-4.21-4.41c-1.76-0.85-3.69-1.27-5.78-1.27c-1.7,0-3.43,0.43-5.19,1.27
			c-1.76,0.85-3.22,2.32-4.36,4.41c-1.14,2.09-1.71,4.97-1.71,8.62v27.44c0,0.65-0.21,1.19-0.64,1.62
			c-0.43,0.43-0.96,0.64-1.62,0.64h-4.61c-0.65,0-1.19-0.21-1.62-0.64c-0.42-0.42-0.64-0.96-0.64-1.62v-27.44
			c0-3.66-0.56-6.53-1.67-8.62c-1.11-2.09-2.55-3.56-4.31-4.41c-1.76-0.85-3.63-1.27-5.59-1.27c-1.7,0-3.43,0.43-5.19,1.27
			c-1.76,0.85-3.22,2.32-4.36,4.41c-1.14,2.09-1.71,4.93-1.71,8.53v27.54c0,0.65-0.21,1.19-0.64,1.62
			c-0.43,0.43-0.96,0.64-1.62,0.64H183.44z"/>
		<path class="st26" d="M275.66,1014.79c-0.52,0-0.98-0.2-1.37-0.59c-0.39-0.39-0.59-0.85-0.59-1.37c0-0.26,0.03-0.52,0.1-0.78
			c0.06-0.26,0.2-0.59,0.39-0.98l7.55-17.93l-18.72-44.2c-0.33-0.78-0.49-1.34-0.49-1.67c0-0.59,0.2-1.08,0.59-1.47
			s0.88-0.59,1.47-0.59h4.8c0.65,0,1.18,0.16,1.57,0.49c0.39,0.33,0.65,0.72,0.78,1.18l14.9,35.67l15.29-35.67
			c0.2-0.46,0.47-0.85,0.83-1.18c0.36-0.33,0.9-0.49,1.62-0.49h4.61c0.59,0,1.08,0.2,1.47,0.59s0.59,0.85,0.59,1.37
			c0,0.33-0.16,0.92-0.49,1.76l-27.83,64.19c-0.2,0.46-0.47,0.85-0.83,1.18c-0.36,0.33-0.9,0.49-1.62,0.49H275.66z"/>
		<path class="st26" d="M323.09,996.17c-0.65,0-1.19-0.21-1.62-0.64c-0.43-0.42-0.64-0.96-0.64-1.62v-65.07
			c0-0.65,0.21-1.19,0.64-1.62c0.42-0.42,0.96-0.64,1.62-0.64h4.61c0.65,0,1.19,0.21,1.62,0.64c0.42,0.43,0.64,0.96,0.64,1.62v34.1
			l19.31-16.07c0.78-0.65,1.39-1.09,1.81-1.32c0.42-0.23,1.13-0.34,2.11-0.34h5.19c0.59,0,1.08,0.2,1.47,0.59
			c0.39,0.39,0.59,0.88,0.59,1.47c0,0.26-0.08,0.56-0.25,0.88c-0.16,0.33-0.47,0.65-0.93,0.98l-22.64,18.82l25.09,24.4
			c0.78,0.65,1.18,1.24,1.18,1.76c0,0.59-0.2,1.08-0.59,1.47c-0.39,0.39-0.88,0.59-1.47,0.59h-5.1c-0.98,0-1.7-0.11-2.16-0.34
			c-0.46-0.23-1.05-0.67-1.76-1.32l-21.85-20.87v20.29c0,0.65-0.21,1.19-0.64,1.62c-0.43,0.43-0.96,0.64-1.62,0.64H323.09z"/>
		<path class="st26" d="M415.6,1011.75c-4.25,0-7.84-0.9-10.78-2.7c-2.94-1.8-5.29-4.56-7.06-8.28c-1.76-3.72-3.05-8.48-3.87-14.26
			c-0.82-5.78-1.22-12.66-1.22-20.63c0-7.97,0.41-14.85,1.22-20.63c0.82-5.78,2.11-10.54,3.87-14.26c1.76-3.72,4.12-6.47,7.06-8.23
			c2.94-1.76,6.53-2.65,10.78-2.65c0.59,0,1.11,0.23,1.57,0.69c0.46,0.46,0.69,0.98,0.69,1.57v3.43c0,0.59-0.21,1.11-0.64,1.57
			c-0.43,0.46-0.87,0.69-1.32,0.69c-2.74,0.07-5.05,0.77-6.91,2.11c-1.86,1.34-3.37,3.48-4.51,6.42c-1.14,2.94-1.96,6.81-2.45,11.61
			c-0.49,4.8-0.74,10.7-0.74,17.69c0,6.99,0.25,12.89,0.74,17.69c0.49,4.8,1.31,8.69,2.45,11.66c1.14,2.97,2.65,5.13,4.51,6.47
			c1.86,1.34,4.17,2.04,6.91,2.11c0.46,0,0.9,0.23,1.32,0.69c0.42,0.46,0.64,0.98,0.64,1.57v3.43c0,0.59-0.23,1.11-0.69,1.57
			C416.71,1011.52,416.19,1011.75,415.6,1011.75z"/>
		<path class="st26" d="M445.98,997.15c-5.42,0-10.03-1.09-13.82-3.28c-3.79-2.19-6.68-5.06-8.67-8.62
			c-1.99-3.56-2.99-7.43-2.99-11.61c0-1.96,0.25-3.84,0.74-5.63c0.49-1.8,1.11-3.49,1.86-5.1c0.75-1.6,1.5-3.04,2.25-4.31
			c0.75-1.27,1.42-2.3,2.01-3.09l18.62-25.97c0.33-0.33,0.72-0.74,1.18-1.23c0.46-0.49,1.14-0.73,2.06-0.73h5.19
			c0.59,0,1.06,0.21,1.42,0.64c0.36,0.43,0.54,0.93,0.54,1.52c0,0.26-0.03,0.51-0.1,0.74c-0.07,0.23-0.16,0.41-0.29,0.54
			l-14.31,19.99c0.78-0.26,1.68-0.44,2.7-0.54c1.01-0.1,1.97-0.15,2.89-0.15c3.59,0.07,6.86,0.72,9.8,1.96
			c2.94,1.24,5.47,2.92,7.59,5.05c2.12,2.12,3.74,4.57,4.85,7.35c1.11,2.78,1.67,5.73,1.67,8.87c0,4.12-0.98,7.97-2.94,11.56
			c-1.96,3.59-4.82,6.5-8.57,8.72C455.9,996.04,451.34,997.15,445.98,997.15z M445.88,988.82c2.74,0,5.29-0.59,7.64-1.76
			c2.35-1.18,4.26-2.89,5.73-5.14s2.21-5.01,2.21-8.28c0-3.33-0.72-6.12-2.16-8.38c-1.44-2.25-3.35-3.95-5.73-5.1
			c-2.39-1.14-4.95-1.72-7.69-1.72s-5.29,0.57-7.64,1.72c-2.35,1.14-4.26,2.84-5.73,5.1s-2.21,5.05-2.21,8.38
			c0,3.27,0.74,6.03,2.21,8.28s3.38,3.97,5.73,5.14C440.59,988.23,443.14,988.82,445.88,988.82z"/>
		<path class="st26" d="M505.96,997.15c-4.51,0-8.32-0.7-11.42-2.11c-3.1-1.4-5.64-3.35-7.6-5.83c-1.96-2.48-3.38-5.32-4.26-8.53
			c-0.88-3.2-1.39-6.6-1.52-10.19c-0.07-1.76-0.12-3.63-0.15-5.59c-0.03-1.96-0.03-3.94,0-5.93c0.03-1.99,0.08-3.9,0.15-5.73
			c0.06-3.59,0.57-7.01,1.52-10.24c0.95-3.23,2.38-6.08,4.31-8.53c1.93-2.45,4.46-4.38,7.6-5.78c3.14-1.4,6.92-2.11,11.37-2.11
			c4.51,0,8.31,0.7,11.42,2.11c3.1,1.41,5.63,3.33,7.59,5.78c1.96,2.45,3.41,5.29,4.36,8.53c0.95,3.23,1.45,6.65,1.52,10.24
			c0.06,1.83,0.11,3.74,0.15,5.73c0.03,1.99,0.03,3.97,0,5.93c-0.03,1.96-0.08,3.82-0.15,5.59c-0.07,3.59-0.57,6.99-1.52,10.19
			c-0.95,3.2-2.39,6.04-4.31,8.53c-1.93,2.48-4.44,4.43-7.55,5.83C514.37,996.45,510.53,997.15,505.96,997.15z M505.96,988.82
			c5.1,0,8.87-1.68,11.32-5.05c2.45-3.36,3.71-7.95,3.77-13.77c0.13-1.89,0.2-3.74,0.2-5.54c0-1.8,0-3.59,0-5.39
			c0-1.8-0.07-3.58-0.2-5.34c-0.07-5.68-1.32-10.24-3.77-13.67c-2.45-3.43-6.22-5.14-11.32-5.14c-5.03,0-8.77,1.71-11.22,5.14
			c-2.45,3.43-3.74,7.99-3.87,13.67c0,1.76-0.02,3.54-0.05,5.34c-0.03,1.8-0.03,3.59,0,5.39c0.03,1.8,0.05,3.64,0.05,5.54
			c0.13,5.82,1.44,10.41,3.92,13.77C497.27,987.14,500.99,988.82,505.96,988.82z"/>
		<path class="st26" d="M542.22,1003.52c-0.52,0-0.93-0.2-1.23-0.59c-0.29-0.39-0.41-0.88-0.34-1.47l2.25-14.01
			c0.13-0.78,0.41-1.45,0.83-2.01c0.42-0.55,1.06-0.83,1.91-0.83h6.57c0.46,0,0.83,0.16,1.13,0.49c0.29,0.33,0.44,0.72,0.44,1.18
			c0,0.52-0.13,1.05-0.39,1.57l-5.1,13.43c-0.26,0.65-0.6,1.19-1.03,1.62c-0.43,0.42-1.03,0.64-1.81,0.64H542.22z"/>
		<path class="st26" d="M580.54,996.17c-0.65,0-1.19-0.21-1.62-0.64c-0.43-0.42-0.64-0.96-0.64-1.62v-54.88l-16.27,12.54
			c-0.52,0.39-1.08,0.56-1.67,0.49c-0.59-0.06-1.08-0.36-1.47-0.88l-2.55-3.23c-0.39-0.59-0.54-1.18-0.44-1.76
			c0.1-0.59,0.41-1.08,0.93-1.47l21.36-16.46c0.46-0.33,0.88-0.52,1.27-0.59c0.39-0.06,0.82-0.1,1.27-0.1h5
			c0.65,0,1.18,0.21,1.57,0.64c0.39,0.43,0.59,0.96,0.59,1.62v64.09c0,0.65-0.2,1.19-0.59,1.62c-0.39,0.43-0.92,0.64-1.57,0.64
			H580.54z"/>
		<path class="st26" d="M602,1003.52c-0.52,0-0.93-0.2-1.23-0.59c-0.29-0.39-0.41-0.88-0.34-1.47l2.25-14.01
			c0.13-0.78,0.41-1.45,0.83-2.01c0.42-0.55,1.06-0.83,1.91-0.83h6.57c0.46,0,0.83,0.16,1.13,0.49c0.29,0.33,0.44,0.72,0.44,1.18
			c0,0.52-0.13,1.05-0.39,1.57l-5.1,13.43c-0.26,0.65-0.6,1.19-1.03,1.62c-0.43,0.42-1.03,0.64-1.81,0.64H602z"/>
		<path class="st26" d="M648.45,997.15c-5.16,0-9.52-0.9-13.08-2.7c-3.56-1.8-6.27-4.13-8.13-7.01c-1.86-2.87-2.86-5.91-2.99-9.11
			c-0.07-0.59,0.1-1.04,0.49-1.37c0.39-0.33,0.88-0.49,1.47-0.49h5.29c0.59,0,1.11,0.13,1.57,0.39c0.46,0.26,0.82,0.82,1.08,1.67
			c0.65,2.42,1.72,4.39,3.19,5.93c1.47,1.54,3.17,2.65,5.1,3.33c1.93,0.69,3.94,1.03,6.03,1.03c2.81,0,5.37-0.57,7.69-1.72
			c2.32-1.14,4.17-2.84,5.54-5.1s2.06-4.98,2.06-8.18c0-2.94-0.67-5.47-2.01-7.6c-1.34-2.12-3.17-3.76-5.49-4.9
			c-2.32-1.14-4.92-1.71-7.79-1.71c-2.16,0-3.92,0.26-5.29,0.78c-1.37,0.52-2.53,1.14-3.48,1.86c-0.95,0.72-1.8,1.34-2.55,1.86
			c-0.75,0.52-1.58,0.78-2.5,0.78h-5.1c-0.59,0-1.11-0.21-1.57-0.64c-0.46-0.42-0.65-0.93-0.59-1.52l3.14-32.73
			c0.06-0.78,0.31-1.39,0.74-1.81c0.42-0.42,1-0.64,1.71-0.64h34.2c0.65,0,1.19,0.21,1.62,0.64c0.42,0.43,0.64,0.96,0.64,1.62v3.82
			c0,0.72-0.21,1.27-0.64,1.67c-0.43,0.39-0.96,0.59-1.62,0.59h-28.22l-1.86,19.31c0.91-0.59,2.38-1.29,4.41-2.11
			c2.02-0.82,4.8-1.22,8.33-1.22c3.2,0,6.22,0.49,9.06,1.47c2.84,0.98,5.37,2.42,7.6,4.31c2.22,1.9,3.95,4.2,5.19,6.91
			c1.24,2.71,1.86,5.83,1.86,9.36c0,4.97-1.09,9.18-3.28,12.64c-2.19,3.46-5.16,6.09-8.92,7.89
			C657.58,996.25,653.28,997.15,648.45,997.15z"/>
		<path class="st26" d="M708.23,997.15c-5.42,0-10.03-1.09-13.82-3.28c-3.79-2.19-6.68-5.06-8.67-8.62
			c-1.99-3.56-2.99-7.43-2.99-11.61c0-1.96,0.25-3.84,0.74-5.63c0.49-1.8,1.11-3.49,1.86-5.1c0.75-1.6,1.5-3.04,2.25-4.31
			c0.75-1.27,1.42-2.3,2.01-3.09l18.62-25.97c0.33-0.33,0.72-0.74,1.18-1.23c0.46-0.49,1.14-0.73,2.06-0.73h5.19
			c0.59,0,1.06,0.21,1.42,0.64c0.36,0.43,0.54,0.93,0.54,1.52c0,0.26-0.03,0.51-0.1,0.74c-0.07,0.23-0.16,0.41-0.29,0.54
			l-14.31,19.99c0.78-0.26,1.68-0.44,2.7-0.54c1.01-0.1,1.97-0.15,2.89-0.15c3.59,0.07,6.86,0.72,9.8,1.96
			c2.94,1.24,5.47,2.92,7.59,5.05c2.12,2.12,3.74,4.57,4.85,7.35c1.11,2.78,1.67,5.73,1.67,8.87c0,4.12-0.98,7.97-2.94,11.56
			c-1.96,3.59-4.82,6.5-8.57,8.72C718.14,996.04,713.58,997.15,708.23,997.15z M708.13,988.82c2.74,0,5.29-0.59,7.64-1.76
			c2.35-1.18,4.26-2.89,5.73-5.14s2.21-5.01,2.21-8.28c0-3.33-0.72-6.12-2.16-8.38c-1.44-2.25-3.35-3.95-5.73-5.1
			c-2.39-1.14-4.95-1.72-7.69-1.72s-5.29,0.57-7.64,1.72c-2.35,1.14-4.26,2.84-5.73,5.1s-2.21,5.05-2.21,8.38
			c0,3.27,0.74,6.03,2.21,8.28s3.38,3.97,5.73,5.14C702.84,988.23,705.39,988.82,708.13,988.82z"/>
		<path class="st26" d="M743.7,1003.52c-0.52,0-0.93-0.2-1.23-0.59c-0.29-0.39-0.41-0.88-0.34-1.47l2.25-14.01
			c0.13-0.78,0.41-1.45,0.83-2.01c0.42-0.55,1.06-0.83,1.91-0.83h6.57c0.46,0,0.83,0.16,1.13,0.49c0.29,0.33,0.44,0.72,0.44,1.18
			c0,0.52-0.13,1.05-0.39,1.57l-5.1,13.43c-0.26,0.65-0.6,1.19-1.03,1.62c-0.43,0.42-1.03,0.64-1.81,0.64H743.7z"/>
		<path class="st26" d="M791.14,997.15c-4.51,0-8.32-0.7-11.42-2.11c-3.1-1.4-5.64-3.35-7.6-5.83c-1.96-2.48-3.38-5.32-4.26-8.53
			c-0.88-3.2-1.39-6.6-1.52-10.19c-0.07-1.76-0.12-3.63-0.15-5.59c-0.03-1.96-0.03-3.94,0-5.93c0.03-1.99,0.08-3.9,0.15-5.73
			c0.06-3.59,0.57-7.01,1.52-10.24c0.95-3.23,2.38-6.08,4.31-8.53c1.93-2.45,4.46-4.38,7.6-5.78c3.14-1.4,6.92-2.11,11.37-2.11
			c4.51,0,8.31,0.7,11.42,2.11c3.1,1.41,5.63,3.33,7.59,5.78c1.96,2.45,3.41,5.29,4.36,8.53c0.95,3.23,1.45,6.65,1.52,10.24
			c0.06,1.83,0.11,3.74,0.15,5.73c0.03,1.99,0.03,3.97,0,5.93c-0.03,1.96-0.08,3.82-0.15,5.59c-0.07,3.59-0.57,6.99-1.52,10.19
			c-0.95,3.2-2.39,6.04-4.31,8.53c-1.93,2.48-4.44,4.43-7.55,5.83C799.55,996.45,795.71,997.15,791.14,997.15z M791.14,988.82
			c5.1,0,8.87-1.68,11.32-5.05c2.45-3.36,3.71-7.95,3.77-13.77c0.13-1.89,0.2-3.74,0.2-5.54c0-1.8,0-3.59,0-5.39
			c0-1.8-0.07-3.58-0.2-5.34c-0.07-5.68-1.32-10.24-3.77-13.67c-2.45-3.43-6.22-5.14-11.32-5.14c-5.03,0-8.77,1.71-11.22,5.14
			c-2.45,3.43-3.74,7.99-3.87,13.67c0,1.76-0.02,3.54-0.05,5.34c-0.03,1.8-0.03,3.59,0,5.39c0.03,1.8,0.05,3.64,0.05,5.54
			c0.13,5.82,1.44,10.41,3.92,13.77C782.45,987.14,786.17,988.82,791.14,988.82z"/>
		<path class="st26" d="M824.16,1011.75c-0.59,0-1.11-0.23-1.57-0.69c-0.46-0.46-0.69-0.98-0.69-1.57v-3.43
			c0-0.59,0.21-1.11,0.64-1.57c0.42-0.46,0.9-0.69,1.42-0.69c2.74-0.07,5.05-0.77,6.91-2.11c1.86-1.34,3.35-3.5,4.46-6.47
			c1.11-2.97,1.93-6.86,2.45-11.66c0.52-4.8,0.78-10.7,0.78-17.69c0-6.99-0.26-12.89-0.78-17.69c-0.52-4.8-1.34-8.67-2.45-11.61
			c-1.11-2.94-2.6-5.08-4.46-6.42c-1.86-1.34-4.17-2.04-6.91-2.11c-0.52,0-1-0.23-1.42-0.69c-0.43-0.46-0.64-0.98-0.64-1.57v-3.43
			c0-0.59,0.23-1.11,0.69-1.57c0.46-0.46,0.98-0.69,1.57-0.69c4.25,0,7.84,0.88,10.78,2.65c2.94,1.76,5.29,4.51,7.06,8.23
			c1.76,3.72,3.05,8.48,3.87,14.26c0.82,5.78,1.22,12.66,1.22,20.63c0,7.97-0.41,14.85-1.22,20.63c-0.82,5.78-2.11,10.54-3.87,14.26
			c-1.76,3.72-4.12,6.48-7.06,8.28C832,1010.85,828.41,1011.75,824.16,1011.75z"/>
		<path class="st26" d="M129.35,1113.77c-0.65,0-1.19-0.21-1.62-0.64c-0.43-0.42-0.64-0.96-0.64-1.62v-46.35
			c0-0.65,0.21-1.21,0.64-1.67c0.42-0.46,0.96-0.69,1.62-0.69h4.51c0.65,0,1.21,0.23,1.67,0.69c0.46,0.46,0.69,1.01,0.69,1.67v4.31
			c1.31-2.22,3.1-3.89,5.39-5c2.29-1.11,5.03-1.67,8.23-1.67h3.92c0.65,0,1.18,0.21,1.57,0.64c0.39,0.43,0.59,0.96,0.59,1.62v4.02
			c0,0.65-0.2,1.18-0.59,1.57c-0.39,0.39-0.92,0.59-1.57,0.59h-5.88c-3.53,0-6.31,1.03-8.33,3.09c-2.03,2.06-3.04,4.85-3.04,8.38
			v28.81c0,0.65-0.23,1.19-0.69,1.62c-0.46,0.43-1.01,0.64-1.67,0.64H129.35z"/>
		<path class="st26" d="M184.13,1135.33c-4.44,0-8.08-0.59-10.93-1.76s-5.06-2.6-6.66-4.26c-1.6-1.67-2.74-3.33-3.43-5
			c-0.69-1.67-1.06-2.99-1.13-3.97c-0.07-0.65,0.15-1.21,0.64-1.67c0.49-0.46,1.03-0.69,1.62-0.69h4.7c0.59,0,1.08,0.13,1.47,0.39
			c0.39,0.26,0.72,0.82,0.98,1.67c0.39,0.98,0.98,2.07,1.76,3.28c0.78,1.21,1.99,2.25,3.63,3.14c1.63,0.88,3.92,1.32,6.86,1.32
			c3.07,0,5.65-0.41,7.74-1.22c2.09-0.82,3.67-2.25,4.75-4.31c1.08-2.06,1.62-4.88,1.62-8.48v-6.66c-1.57,2.03-3.63,3.71-6.17,5.05
			c-2.55,1.34-5.75,2.01-9.6,2.01c-3.66,0-6.8-0.64-9.41-1.91c-2.61-1.27-4.75-3-6.42-5.19c-1.67-2.19-2.91-4.69-3.72-7.5
			c-0.82-2.81-1.29-5.75-1.42-8.82c-0.07-1.83-0.07-3.63,0-5.39c0.13-3.07,0.6-6.01,1.42-8.82c0.82-2.81,2.06-5.32,3.72-7.55
			c1.67-2.22,3.81-3.97,6.42-5.24c2.61-1.27,5.75-1.91,9.41-1.91c3.92,0,7.17,0.74,9.75,2.21c2.58,1.47,4.69,3.25,6.32,5.34v-4.21
			c0-0.65,0.21-1.21,0.64-1.67c0.42-0.46,0.96-0.69,1.62-0.69h4.51c0.65,0,1.21,0.23,1.67,0.69c0.46,0.46,0.69,1.01,0.69,1.67v47.53
			c0,4.38-0.74,8.26-2.21,11.66c-1.47,3.4-3.89,6.08-7.25,8.04C194.34,1134.35,189.81,1135.33,184.13,1135.33z M183.93,1106.32
			c3.27,0,5.9-0.75,7.89-2.25c1.99-1.5,3.46-3.4,4.41-5.68c0.95-2.29,1.45-4.61,1.52-6.96c0.06-0.91,0.1-2.04,0.1-3.38
			c0-1.34-0.03-2.47-0.1-3.38c-0.07-2.35-0.57-4.67-1.52-6.96c-0.95-2.29-2.42-4.18-4.41-5.68c-1.99-1.5-4.62-2.25-7.89-2.25
			c-3.27,0-5.88,0.74-7.84,2.21s-3.37,3.4-4.21,5.78c-0.85,2.39-1.34,4.95-1.47,7.69c-0.07,1.7-0.07,3.43,0,5.19
			c0.13,2.74,0.62,5.31,1.47,7.69c0.85,2.39,2.25,4.31,4.21,5.78C178.05,1105.59,180.67,1106.32,183.93,1106.32z"/>
		<path class="st26" d="M246.95,1114.75c-3.92,0-7.19-0.7-9.8-2.11c-2.61-1.4-4.7-3.15-6.27-5.24v4.12c0,0.65-0.21,1.19-0.64,1.62
			c-0.42,0.43-0.96,0.64-1.62,0.64h-4.51c-0.65,0-1.19-0.21-1.62-0.64c-0.43-0.42-0.64-0.96-0.64-1.62v-65.07
			c0-0.65,0.21-1.19,0.64-1.62c0.42-0.42,0.96-0.64,1.62-0.64h4.7c0.72,0,1.27,0.21,1.67,0.64c0.39,0.43,0.59,0.96,0.59,1.62v22.54
			c1.63-2.02,3.74-3.72,6.32-5.1c2.58-1.37,5.77-2.06,9.56-2.06c3.66,0,6.78,0.64,9.36,1.91c2.58,1.27,4.7,3.02,6.37,5.24
			c1.67,2.22,2.92,4.74,3.77,7.55c0.85,2.81,1.31,5.75,1.37,8.82c0.06,1.05,0.1,2.03,0.1,2.94c0,0.92-0.03,1.9-0.1,2.94
			c-0.07,3.14-0.52,6.11-1.37,8.92c-0.85,2.81-2.11,5.31-3.77,7.5c-1.67,2.19-3.79,3.92-6.37,5.19
			C253.72,1114.11,250.6,1114.75,246.95,1114.75z M244.89,1106.81c3.4,0,6.06-0.74,7.99-2.21c1.93-1.47,3.32-3.4,4.17-5.78
			c0.85-2.38,1.34-4.95,1.47-7.69c0.06-1.89,0.06-3.79,0-5.68c-0.13-2.74-0.62-5.31-1.47-7.69c-0.85-2.38-2.24-4.31-4.17-5.78
			c-1.93-1.47-4.59-2.21-7.99-2.21c-3.07,0-5.62,0.72-7.64,2.16c-2.03,1.44-3.54,3.27-4.56,5.49c-1.01,2.22-1.55,4.48-1.62,6.76
			c-0.07,1.05-0.1,2.3-0.1,3.77c0,1.47,0.03,2.73,0.1,3.77c0.13,2.42,0.67,4.79,1.62,7.1c0.95,2.32,2.42,4.23,4.41,5.73
			C239.09,1106.06,241.69,1106.81,244.89,1106.81z"/>
		<path class="st26" d="M301.33,1129.35c-4.25,0-7.84-0.9-10.78-2.7c-2.94-1.8-5.29-4.56-7.06-8.28c-1.76-3.72-3.05-8.48-3.87-14.26
			c-0.82-5.78-1.22-12.66-1.22-20.63c0-7.97,0.41-14.85,1.22-20.63c0.82-5.78,2.11-10.54,3.87-14.26c1.76-3.72,4.12-6.47,7.06-8.23
			c2.94-1.76,6.53-2.65,10.78-2.65c0.59,0,1.11,0.23,1.57,0.69c0.46,0.46,0.69,0.98,0.69,1.57v3.43c0,0.59-0.21,1.11-0.64,1.57
			c-0.43,0.46-0.87,0.69-1.32,0.69c-2.74,0.07-5.05,0.77-6.91,2.11c-1.86,1.34-3.37,3.48-4.51,6.42c-1.14,2.94-1.96,6.81-2.45,11.61
			c-0.49,4.8-0.74,10.7-0.74,17.69c0,6.99,0.25,12.89,0.74,17.69c0.49,4.8,1.31,8.69,2.45,11.66c1.14,2.97,2.65,5.13,4.51,6.47
			c1.86,1.34,4.17,2.04,6.91,2.11c0.46,0,0.9,0.23,1.32,0.69c0.42,0.46,0.64,0.98,0.64,1.57v3.43c0,0.59-0.23,1.11-0.69,1.57
			C302.44,1129.12,301.92,1129.35,301.33,1129.35z"/>
		<path class="st26" d="M329.66,1113.77c-0.65,0-1.19-0.21-1.62-0.64c-0.43-0.42-0.64-0.96-0.64-1.62v-54.88l-16.27,12.54
			c-0.52,0.39-1.08,0.56-1.67,0.49c-0.59-0.06-1.08-0.36-1.47-0.88l-2.55-3.23c-0.39-0.59-0.54-1.18-0.44-1.76
			c0.1-0.59,0.41-1.08,0.93-1.47l21.36-16.46c0.46-0.33,0.88-0.52,1.27-0.59c0.39-0.06,0.82-0.1,1.27-0.1h5
			c0.65,0,1.18,0.21,1.57,0.64c0.39,0.43,0.59,0.96,0.59,1.62v64.09c0,0.65-0.2,1.19-0.59,1.62c-0.39,0.43-0.92,0.64-1.57,0.64
			H329.66z"/>
		<path class="st26" d="M375.62,1114.75c-4.51,0-8.32-0.7-11.42-2.11c-3.1-1.4-5.64-3.35-7.6-5.83c-1.96-2.48-3.38-5.32-4.26-8.53
			c-0.88-3.2-1.39-6.6-1.52-10.19c-0.07-1.76-0.12-3.63-0.15-5.59c-0.03-1.96-0.03-3.94,0-5.93c0.03-1.99,0.08-3.9,0.15-5.73
			c0.06-3.59,0.57-7.01,1.52-10.24c0.95-3.23,2.38-6.08,4.31-8.53c1.93-2.45,4.46-4.38,7.6-5.78c3.14-1.4,6.92-2.11,11.37-2.11
			c4.51,0,8.31,0.7,11.42,2.11c3.1,1.41,5.63,3.33,7.59,5.78c1.96,2.45,3.41,5.29,4.36,8.53c0.95,3.23,1.45,6.65,1.52,10.24
			c0.06,1.83,0.11,3.74,0.15,5.73c0.03,1.99,0.03,3.97,0,5.93c-0.03,1.96-0.08,3.82-0.15,5.59c-0.07,3.59-0.57,6.99-1.52,10.19
			c-0.95,3.2-2.39,6.04-4.31,8.53c-1.93,2.48-4.44,4.43-7.55,5.83C384.03,1114.05,380.19,1114.75,375.62,1114.75z M375.62,1106.42
			c5.1,0,8.87-1.68,11.32-5.05c2.45-3.36,3.71-7.95,3.77-13.77c0.13-1.89,0.2-3.74,0.2-5.54c0-1.8,0-3.59,0-5.39
			c0-1.8-0.07-3.58-0.2-5.34c-0.07-5.68-1.32-10.24-3.77-13.67c-2.45-3.43-6.22-5.14-11.32-5.14c-5.03,0-8.77,1.71-11.22,5.14
			c-2.45,3.43-3.74,7.99-3.87,13.67c0,1.76-0.02,3.54-0.05,5.34c-0.03,1.8-0.03,3.59,0,5.39c0.03,1.8,0.05,3.64,0.05,5.54
			c0.13,5.82,1.44,10.41,3.92,13.77C366.93,1104.74,370.65,1106.42,375.62,1106.42z"/>
		<path class="st26" d="M425.7,1113.77c-0.59,0-1.06-0.21-1.42-0.64c-0.36-0.42-0.54-0.93-0.54-1.52c0-0.33,0.05-0.59,0.15-0.78
			c0.1-0.2,0.18-0.36,0.25-0.49l14.99-20.87c-1.63,0.39-3.4,0.59-5.29,0.59c-3.66-0.06-6.93-0.72-9.8-1.96
			c-2.88-1.24-5.33-2.92-7.35-5.05c-2.03-2.12-3.56-4.52-4.61-7.2c-1.05-2.68-1.57-5.49-1.57-8.43c0-2.88,0.51-5.68,1.52-8.43
			c1.01-2.74,2.55-5.23,4.61-7.45c2.06-2.22,4.62-4,7.69-5.34c3.07-1.34,6.7-2.01,10.88-2.01c4.12,0,7.73,0.64,10.83,1.91
			c3.1,1.27,5.72,3.01,7.84,5.19c2.12,2.19,3.69,4.65,4.7,7.4c1.01,2.74,1.52,5.59,1.52,8.53c0,2.68-0.39,5.13-1.18,7.35
			c-0.78,2.22-1.71,4.21-2.79,5.98c-1.08,1.76-2.14,3.4-3.18,4.9l-18.82,26.36c-0.26,0.33-0.62,0.74-1.08,1.22
			c-0.46,0.49-1.14,0.74-2.06,0.74H425.7z M435.2,1082.12c2.74,0,5.28-0.6,7.59-1.81c2.32-1.21,4.17-2.91,5.54-5.1
			c1.37-2.19,2.06-4.82,2.06-7.89c0-3.07-0.69-5.7-2.06-7.89c-1.37-2.19-3.22-3.89-5.54-5.1c-2.32-1.21-4.85-1.81-7.59-1.81
			c-2.68,0-5.16,0.6-7.45,1.81c-2.29,1.21-4.12,2.91-5.49,5.1c-1.37,2.19-2.06,4.82-2.06,7.89c0,3.07,0.69,5.7,2.06,7.89
			c1.37,2.19,3.2,3.89,5.49,5.1C430.04,1081.51,432.52,1082.12,435.2,1082.12z"/>
		<path class="st26" d="M465.19,1121.12c-0.52,0-0.93-0.2-1.23-0.59c-0.29-0.39-0.41-0.88-0.34-1.47l2.25-14.01
			c0.13-0.78,0.41-1.45,0.83-2.01c0.42-0.55,1.06-0.83,1.91-0.83h6.57c0.46,0,0.83,0.16,1.13,0.49c0.29,0.33,0.44,0.72,0.44,1.18
			c0,0.52-0.13,1.05-0.39,1.57l-5.1,13.43c-0.26,0.65-0.6,1.19-1.03,1.62c-0.43,0.42-1.03,0.64-1.81,0.64H465.19z"/>
		<path class="st26" d="M503.51,1113.77c-0.65,0-1.19-0.21-1.62-0.64c-0.43-0.42-0.64-0.96-0.64-1.62v-54.88l-16.27,12.54
			c-0.52,0.39-1.08,0.56-1.67,0.49c-0.59-0.06-1.08-0.36-1.47-0.88l-2.55-3.23c-0.39-0.59-0.54-1.18-0.44-1.76
			c0.1-0.59,0.41-1.08,0.93-1.47l21.36-16.46c0.46-0.33,0.88-0.52,1.27-0.59c0.39-0.06,0.82-0.1,1.27-0.1h5
			c0.65,0,1.18,0.21,1.57,0.64c0.39,0.43,0.59,0.96,0.59,1.62v64.09c0,0.65-0.2,1.19-0.59,1.62c-0.39,0.43-0.92,0.64-1.57,0.64
			H503.51z"/>
		<path class="st26" d="M549.57,1114.75c-3.79,0-7.27-0.48-10.44-1.42s-5.88-2.32-8.13-4.12s-4-3.97-5.24-6.52
			c-1.24-2.55-1.86-5.42-1.86-8.62c0-3.98,0.96-7.41,2.89-10.29c1.93-2.87,4.49-5.06,7.69-6.57c-2.55-1.5-4.54-3.46-5.98-5.88
			c-1.44-2.42-2.16-5.29-2.16-8.62c0-3.92,0.96-7.24,2.89-9.95c1.93-2.71,4.64-4.82,8.13-6.32c3.49-1.5,7.56-2.25,12.2-2.25
			c4.57,0,8.61,0.74,12.1,2.21s6.21,3.58,8.13,6.32c1.93,2.74,2.89,6.04,2.89,9.9c0,3.33-0.72,6.22-2.16,8.67
			c-1.44,2.45-3.4,4.43-5.88,5.93c3.2,1.5,5.77,3.69,7.69,6.57c1.93,2.88,2.89,6.31,2.89,10.29c0,4.25-1.08,7.92-3.23,11.03
			c-2.16,3.1-5.16,5.49-9.02,7.15C559.14,1113.92,554.66,1114.75,549.57,1114.75z M549.57,1106.91c3,0,5.72-0.52,8.13-1.57
			c2.42-1.04,4.34-2.53,5.78-4.46c1.44-1.93,2.16-4.2,2.16-6.81c0-2.68-0.72-4.95-2.16-6.81c-1.44-1.86-3.37-3.3-5.78-4.31
			c-2.42-1.01-5.13-1.52-8.13-1.52c-3.01,0-5.73,0.51-8.18,1.52c-2.45,1.01-4.4,2.45-5.83,4.31c-1.44,1.86-2.16,4.13-2.16,6.81
			c0,2.61,0.72,4.88,2.16,6.81c1.44,1.93,3.38,3.41,5.83,4.46C543.83,1106.39,546.56,1106.91,549.57,1106.91z M549.57,1073.69
			c2.48,0,4.79-0.46,6.91-1.37c2.12-0.91,3.82-2.16,5.1-3.72c1.27-1.57,1.91-3.46,1.91-5.68c0-2.22-0.6-4.15-1.81-5.78
			c-1.21-1.63-2.88-2.89-5-3.77s-4.49-1.32-7.1-1.32c-2.61,0-4.98,0.44-7.11,1.32s-3.81,2.14-5.05,3.77
			c-1.24,1.63-1.86,3.56-1.86,5.78c0,2.29,0.62,4.23,1.86,5.83c1.24,1.6,2.92,2.83,5.05,3.67
			C544.58,1073.26,546.95,1073.69,549.57,1073.69z"/>
		<path class="st26" d="M611.89,1114.75c-3.79,0-7.27-0.48-10.44-1.42s-5.88-2.32-8.13-4.12s-4-3.97-5.24-6.52
			c-1.24-2.55-1.86-5.42-1.86-8.62c0-3.98,0.96-7.41,2.89-10.29c1.93-2.87,4.49-5.06,7.69-6.57c-2.55-1.5-4.54-3.46-5.98-5.88
			c-1.44-2.42-2.16-5.29-2.16-8.62c0-3.92,0.96-7.24,2.89-9.95c1.93-2.71,4.64-4.82,8.13-6.32c3.49-1.5,7.56-2.25,12.2-2.25
			c4.57,0,8.61,0.74,12.1,2.21s6.21,3.58,8.13,6.32c1.93,2.74,2.89,6.04,2.89,9.9c0,3.33-0.72,6.22-2.16,8.67
			c-1.44,2.45-3.4,4.43-5.88,5.93c3.2,1.5,5.77,3.69,7.69,6.57c1.93,2.88,2.89,6.31,2.89,10.29c0,4.25-1.08,7.92-3.23,11.03
			c-2.16,3.1-5.16,5.49-9.02,7.15C621.46,1113.92,616.99,1114.75,611.89,1114.75z M611.89,1106.91c3,0,5.72-0.52,8.13-1.57
			c2.42-1.04,4.34-2.53,5.78-4.46c1.44-1.93,2.16-4.2,2.16-6.81c0-2.68-0.72-4.95-2.16-6.81c-1.44-1.86-3.37-3.3-5.78-4.31
			c-2.42-1.01-5.13-1.52-8.13-1.52c-3.01,0-5.73,0.51-8.18,1.52c-2.45,1.01-4.4,2.45-5.83,4.31c-1.44,1.86-2.16,4.13-2.16,6.81
			c0,2.61,0.72,4.88,2.16,6.81c1.44,1.93,3.38,3.41,5.83,4.46C606.16,1106.39,608.89,1106.91,611.89,1106.91z M611.89,1073.69
			c2.48,0,4.79-0.46,6.91-1.37c2.12-0.91,3.82-2.16,5.1-3.72c1.27-1.57,1.91-3.46,1.91-5.68c0-2.22-0.6-4.15-1.81-5.78
			c-1.21-1.63-2.88-2.89-5-3.77s-4.49-1.32-7.1-1.32c-2.61,0-4.98,0.44-7.11,1.32s-3.81,2.14-5.05,3.77
			c-1.24,1.63-1.86,3.56-1.86,5.78c0,2.29,0.62,4.23,1.86,5.83c1.24,1.6,2.92,2.83,5.05,3.67
			C606.91,1073.26,609.28,1073.69,611.89,1073.69z"/>
		<path class="st26" d="M648.64,1121.12c-0.52,0-0.93-0.2-1.23-0.59c-0.29-0.39-0.41-0.88-0.34-1.47l2.25-14.01
			c0.13-0.78,0.41-1.45,0.83-2.01c0.42-0.55,1.06-0.83,1.91-0.83h6.57c0.46,0,0.83,0.16,1.13,0.49c0.29,0.33,0.44,0.72,0.44,1.18
			c0,0.52-0.13,1.05-0.39,1.57l-5.1,13.43c-0.26,0.65-0.6,1.19-1.03,1.62c-0.43,0.42-1.03,0.64-1.81,0.64H648.64z"/>
		<path class="st26" d="M686.96,1113.77c-0.65,0-1.19-0.21-1.62-0.64c-0.43-0.42-0.64-0.96-0.64-1.62v-54.88l-16.27,12.54
			c-0.52,0.39-1.08,0.56-1.67,0.49c-0.59-0.06-1.08-0.36-1.47-0.88l-2.55-3.23c-0.39-0.59-0.54-1.18-0.44-1.76
			c0.1-0.59,0.41-1.08,0.93-1.47l21.36-16.46c0.46-0.33,0.88-0.52,1.27-0.59c0.39-0.06,0.82-0.1,1.27-0.1h5
			c0.65,0,1.18,0.21,1.57,0.64c0.39,0.43,0.59,0.96,0.59,1.62v64.09c0,0.65-0.2,1.19-0.59,1.62c-0.39,0.43-0.92,0.64-1.57,0.64
			H686.96z"/>
		<path class="st26" d="M741.15,1113.77c-0.65,0-1.19-0.21-1.62-0.64c-0.43-0.42-0.64-0.96-0.64-1.62v-14.11h-31.75
			c-0.65,0-1.19-0.21-1.62-0.64c-0.43-0.42-0.64-0.96-0.64-1.62v-3.92c0-0.26,0.08-0.67,0.25-1.22c0.16-0.55,0.44-1.13,0.83-1.72
			l29.4-41.45c0.78-1.11,1.99-1.67,3.63-1.67h7.06c0.65,0,1.19,0.21,1.62,0.64c0.42,0.43,0.64,0.96,0.64,1.62v41.45h8.82
			c0.72,0,1.29,0.21,1.71,0.64c0.42,0.43,0.64,0.96,0.64,1.62v4.02c0,0.65-0.21,1.19-0.64,1.62c-0.43,0.43-0.96,0.64-1.62,0.64
			h-8.92v14.11c0,0.65-0.21,1.19-0.64,1.62c-0.43,0.43-0.96,0.64-1.62,0.64H741.15z M715.38,1089.07H739v-33.61L715.38,1089.07z"/>
		<path class="st26" d="M787.8,1113.77c-0.65,0-1.19-0.21-1.62-0.64c-0.43-0.42-0.64-0.96-0.64-1.62v-54.88l-16.27,12.54
			c-0.52,0.39-1.08,0.56-1.67,0.49c-0.59-0.06-1.08-0.36-1.47-0.88l-2.55-3.23c-0.39-0.59-0.54-1.18-0.44-1.76
			c0.1-0.59,0.41-1.08,0.93-1.47l21.36-16.46c0.46-0.33,0.88-0.52,1.27-0.59c0.39-0.06,0.82-0.1,1.27-0.1h5
			c0.65,0,1.18,0.21,1.57,0.64c0.39,0.43,0.59,0.96,0.59,1.62v64.09c0,0.65-0.2,1.19-0.59,1.62c-0.39,0.43-0.92,0.64-1.57,0.64
			H787.8z"/>
		<path class="st26" d="M807.3,1129.35c-0.59,0-1.11-0.23-1.57-0.69c-0.46-0.46-0.69-0.98-0.69-1.57v-3.43
			c0-0.59,0.21-1.11,0.64-1.57c0.42-0.46,0.9-0.69,1.42-0.69c2.74-0.07,5.05-0.77,6.91-2.11c1.86-1.34,3.35-3.5,4.46-6.47
			c1.11-2.97,1.93-6.86,2.45-11.66c0.52-4.8,0.78-10.7,0.78-17.69c0-6.99-0.26-12.89-0.78-17.69c-0.52-4.8-1.34-8.67-2.45-11.61
			c-1.11-2.94-2.6-5.08-4.46-6.42c-1.86-1.34-4.17-2.04-6.91-2.11c-0.52,0-1-0.23-1.42-0.69c-0.43-0.46-0.64-0.98-0.64-1.57v-3.43
			c0-0.59,0.23-1.11,0.69-1.57c0.46-0.46,0.98-0.69,1.57-0.69c4.25,0,7.84,0.88,10.78,2.65c2.94,1.76,5.29,4.51,7.06,8.23
			c1.76,3.72,3.05,8.48,3.87,14.26c0.82,5.78,1.22,12.66,1.22,20.63c0,7.97-0.41,14.85-1.22,20.63c-0.82,5.78-2.11,10.54-3.87,14.26
			c-1.76,3.72-4.12,6.48-7.06,8.28C815.14,1128.45,811.55,1129.35,807.3,1129.35z"/>
	</g>
</g>
</svg>
