<?xml version="1.0" encoding="utf-8"?>
<!-- Generator: Adobe Illustrator 25.2.1, SVG Export Plug-In . SVG Version: 6.00 Build 0)  -->
<svg version="1.1" xmlns="http://www.w3.org/2000/svg" xmlns:xlink="http://www.w3.org/1999/xlink" x="0px" y="0px"
	 viewBox="0 0 1209.6 1213.46" style="enable-background:new 0 0 1209.6 1213.46;" xml:space="preserve">
<style type="text/css">
	.st0{fill:none;stroke:#35A8E0;stroke-miterlimit:10;}
	.st1{display:none;}
	.st2{fill:none;stroke:#000000;stroke-miterlimit:10;}
	.st3{fill:#F6EB64;}
	.st4{fill:#F75776;}
	.st5{fill:#1D1D1B;}
	.st6{fill:none;stroke:#1D1D1B;stroke-width:0.5;stroke-miterlimit:10;}
	.st7{fill:#FFFFFF;}
	.st8{fill:#E84639;}
	.st9{fill:#F9E8D5;}
	.st10{fill:#48B6A2;}
	.st11{fill:#29336B;}
	.st12{fill:#9458F4;}
	.st13{opacity:0.2;fill:#009EE2;}
	.st14{opacity:0.19;}
	.st15{fill:#51BFDC;}
	.st16{fill:#6DBC8D;}
	.st17{fill:none;stroke:#F9E8D5;stroke-miterlimit:10;}
	.st18{fill:none;stroke:#35A8E0;stroke-width:0.75;stroke-miterlimit:10;}
	.st19{fill:#35A8E0;}
	.st20{opacity:0.49;}
	.st21{fill:none;stroke:#000000;stroke-width:0.75;stroke-miterlimit:10;}
	.st22{fill:none;stroke:#FFEC00;stroke-width:0.75;stroke-miterlimit:10;}
	.st23{fill:none;stroke:#F6EB64;stroke-width:3;stroke-miterlimit:10;}
	.st24{fill:#FFFEFD;}
	.st25{fill:none;stroke:#F75776;stroke-width:50;stroke-linejoin:round;stroke-miterlimit:10;}
	.st26{fill:none;stroke:#000000;stroke-width:18;stroke-miterlimit:10;}
	.st27{fill:#F5F5F5;}
</style>
<g id="guia">
</g>
<g id="Capa_3" class="st1">
</g>
<g id="Capa_4">
</g>
<g id="Capa_1">
	<rect x="-53.36" y="-18.16" class="st24" width="1316.33" height="1296"/>
	<g>
		<path class="st5" d="M136.79,874.75c-0.59,0-1.08-0.2-1.47-0.59c-0.39-0.39-0.56-0.88-0.49-1.47l1.76-11.86h-9.7
			c-0.65,0-1.18-0.2-1.57-0.59c-0.39-0.39-0.59-0.91-0.59-1.57v-3.33c0-0.65,0.2-1.18,0.59-1.57c0.39-0.39,0.91-0.59,1.57-0.59
			h10.88l2.55-17.25h-10.88c-0.65,0-1.18-0.2-1.57-0.59c-0.39-0.39-0.59-0.91-0.59-1.57v-3.33c0-0.65,0.2-1.18,0.59-1.57
			c0.39-0.39,0.91-0.59,1.57-0.59h12.05l1.76-11.86c0.13-0.52,0.36-1,0.69-1.42c0.33-0.42,0.82-0.64,1.47-0.64h3.63
			c0.59,0,1.08,0.2,1.47,0.59c0.39,0.39,0.55,0.88,0.49,1.47l-1.76,11.86h14.5l1.76-11.86c0.13-0.52,0.36-1,0.69-1.42
			c0.33-0.42,0.82-0.64,1.47-0.64h3.63c0.59,0,1.08,0.2,1.47,0.59c0.39,0.39,0.55,0.88,0.49,1.47l-1.76,11.86h9.51
			c0.65,0,1.19,0.2,1.62,0.59c0.42,0.39,0.64,0.92,0.64,1.57v3.33c0,0.65-0.21,1.18-0.64,1.57c-0.42,0.39-0.96,0.59-1.62,0.59
			h-10.58l-2.55,17.25h10.58c0.65,0,1.19,0.2,1.62,0.59c0.42,0.39,0.64,0.92,0.64,1.57v3.33c0,0.65-0.21,1.18-0.64,1.57
			c-0.43,0.39-0.96,0.59-1.62,0.59h-11.76l-1.76,11.86c-0.2,1.37-0.95,2.06-2.25,2.06h-3.63c-0.59,0-1.08-0.2-1.47-0.59
			c-0.39-0.39-0.56-0.88-0.49-1.47l1.76-11.86h-14.41l-1.76,11.86c-0.2,1.37-0.95,2.06-2.25,2.06H136.79z M145.61,853.19h14.41
			l2.55-17.25h-14.41L145.61,853.19z"/>
		<path class="st5" d="M202.75,878.57c-0.65,0-1.19-0.21-1.62-0.64c-0.43-0.42-0.64-0.96-0.64-1.62v-40.87h-8.33
			c-0.65,0-1.19-0.21-1.62-0.64c-0.43-0.42-0.64-0.96-0.64-1.62v-3.33c0-0.65,0.21-1.19,0.64-1.62c0.42-0.42,0.96-0.64,1.62-0.64
			h8.33v-4.9c0-3.33,0.55-6.25,1.67-8.77c1.11-2.51,2.89-4.46,5.34-5.83c2.45-1.37,5.73-2.06,9.85-2.06h5.88
			c0.65,0,1.18,0.21,1.57,0.64c0.39,0.43,0.59,0.96,0.59,1.62v3.33c0,0.65-0.2,1.19-0.59,1.62c-0.39,0.43-0.92,0.64-1.57,0.64h-5.68
			c-3.07,0-5.16,0.8-6.27,2.4c-1.11,1.6-1.67,3.91-1.67,6.91v4.41h20.97v-4.9c0-3.33,0.54-6.25,1.62-8.77
			c1.08-2.51,2.84-4.46,5.29-5.83s5.73-2.06,9.85-2.06h5.88c0.65,0,1.19,0.21,1.62,0.64c0.42,0.43,0.64,0.96,0.64,1.62v3.33
			c0,0.65-0.21,1.19-0.64,1.62c-0.43,0.43-0.96,0.64-1.62,0.64h-5.68c-3.07,0-5.16,0.8-6.27,2.4c-1.11,1.6-1.67,3.91-1.67,6.91v4.41
			h12.64c0.65,0,1.19,0.21,1.62,0.64c0.42,0.43,0.64,0.96,0.64,1.62v3.33c0,0.65-0.21,1.19-0.64,1.62
			c-0.43,0.43-0.96,0.64-1.62,0.64H239.6v40.87c0,0.65-0.2,1.19-0.59,1.62c-0.39,0.43-0.95,0.64-1.67,0.64h-4.51
			c-0.65,0-1.19-0.21-1.62-0.64c-0.43-0.42-0.64-0.96-0.64-1.62v-40.87h-20.97v40.87c0,0.65-0.21,1.19-0.64,1.62
			c-0.43,0.43-0.96,0.64-1.62,0.64H202.75z"/>
		<path class="st5" d="M270.46,878.57c-0.65,0-1.19-0.21-1.62-0.64c-0.43-0.42-0.64-0.96-0.64-1.62v-40.87h-8.33
			c-0.65,0-1.19-0.21-1.62-0.64c-0.43-0.42-0.64-0.96-0.64-1.62v-3.33c0-0.65,0.21-1.19,0.64-1.62c0.42-0.42,0.96-0.64,1.62-0.64
			h8.33v-4.9c0-3.33,0.55-6.25,1.67-8.77c1.11-2.51,2.89-4.46,5.34-5.83c2.45-1.37,5.73-2.06,9.85-2.06h5.88
			c0.65,0,1.18,0.21,1.57,0.64c0.39,0.43,0.59,0.96,0.59,1.62v3.33c0,0.65-0.2,1.19-0.59,1.62c-0.39,0.43-0.92,0.64-1.57,0.64h-5.68
			c-3.07,0-5.16,0.8-6.27,2.4c-1.11,1.6-1.67,3.91-1.67,6.91v4.41h12.64c0.65,0,1.18,0.21,1.57,0.64c0.39,0.43,0.59,0.96,0.59,1.62
			v3.33c0,0.65-0.2,1.19-0.59,1.62c-0.39,0.43-0.92,0.64-1.57,0.64h-12.64v40.87c0,0.65-0.21,1.19-0.64,1.62
			c-0.43,0.43-0.96,0.64-1.62,0.64H270.46z"/>
		<path class="st5" d="M320.15,879.55c-6.73,0-12.09-2.07-16.07-6.22c-3.99-4.15-6.17-9.82-6.57-17c-0.07-0.85-0.1-1.94-0.1-3.28
			c0-1.34,0.03-2.43,0.1-3.28c0.26-4.64,1.34-8.71,3.23-12.2c1.89-3.49,4.49-6.19,7.79-8.08c3.3-1.89,7.17-2.84,11.61-2.84
			c4.96,0,9.13,1.05,12.5,3.14c3.36,2.09,5.93,5.06,7.69,8.92c1.76,3.86,2.65,8.36,2.65,13.52v1.67c0,0.72-0.21,1.27-0.64,1.67
			c-0.43,0.39-0.96,0.59-1.62,0.59h-33.91c0,0.07,0,0.2,0,0.39s0,0.36,0,0.49c0.13,2.68,0.72,5.18,1.76,7.5
			c1.04,2.32,2.55,4.2,4.51,5.64c1.96,1.44,4.31,2.16,7.06,2.16c2.35,0,4.31-0.36,5.88-1.08c1.57-0.72,2.84-1.52,3.82-2.4
			c0.98-0.88,1.63-1.55,1.96-2.01c0.59-0.85,1.04-1.36,1.37-1.52c0.33-0.16,0.85-0.25,1.57-0.25h4.7c0.65,0,1.19,0.18,1.62,0.54
			c0.42,0.36,0.6,0.87,0.54,1.52c-0.07,0.98-0.59,2.17-1.57,3.58c-0.98,1.41-2.39,2.79-4.21,4.17c-1.83,1.37-4.05,2.5-6.66,3.38
			C326.55,879.11,323.55,879.55,320.15,879.55z M306.82,849.37h26.85v-0.29c0-2.94-0.54-5.55-1.62-7.84
			c-1.08-2.29-2.63-4.1-4.66-5.44c-2.03-1.34-4.44-2.01-7.25-2.01c-2.81,0-5.21,0.67-7.2,2.01c-1.99,1.34-3.51,3.15-4.56,5.44
			c-1.05,2.29-1.57,4.9-1.57,7.84V849.37z"/>
		<path class="st5" d="M361.61,878.57c-0.65,0-1.19-0.21-1.62-0.64c-0.43-0.42-0.64-0.96-0.64-1.62v-40.87h-8.33
			c-0.65,0-1.19-0.21-1.62-0.64c-0.43-0.42-0.64-0.96-0.64-1.62v-3.33c0-0.65,0.21-1.19,0.64-1.62c0.42-0.42,0.96-0.64,1.62-0.64
			h8.33v-4.9c0-3.33,0.55-6.25,1.67-8.77c1.11-2.51,2.89-4.46,5.34-5.83c2.45-1.37,5.73-2.06,9.85-2.06h5.88
			c0.65,0,1.18,0.21,1.57,0.64c0.39,0.43,0.59,0.96,0.59,1.62v3.33c0,0.65-0.2,1.19-0.59,1.62c-0.39,0.43-0.92,0.64-1.57,0.64h-5.68
			c-3.07,0-5.16,0.8-6.27,2.4c-1.11,1.6-1.67,3.91-1.67,6.91v4.41h12.64c0.65,0,1.18,0.21,1.57,0.64c0.39,0.43,0.59,0.96,0.59,1.62
			v3.33c0,0.65-0.2,1.19-0.59,1.62c-0.39,0.43-0.92,0.64-1.57,0.64h-12.64v40.87c0,0.65-0.21,1.19-0.64,1.62
			c-0.43,0.43-0.96,0.64-1.62,0.64H361.61z"/>
		<path class="st5" d="M409.72,879.55c-3.59,0-6.7-0.64-9.31-1.91c-2.61-1.27-4.75-3-6.42-5.19c-1.67-2.19-2.91-4.69-3.72-7.5
			c-0.82-2.81-1.29-5.78-1.42-8.92c-0.07-1.04-0.1-2.02-0.1-2.94c0-0.91,0.03-1.89,0.1-2.94c0.13-3.07,0.6-6.01,1.42-8.82
			c0.82-2.81,2.06-5.32,3.72-7.55c1.67-2.22,3.81-3.97,6.42-5.24c2.61-1.27,5.72-1.91,9.31-1.91c3.85,0,7.06,0.69,9.6,2.06
			c2.55,1.37,4.64,3.07,6.27,5.1v-22.54c0-0.65,0.21-1.19,0.64-1.62c0.42-0.42,0.96-0.64,1.62-0.64h4.7c0.65,0,1.19,0.21,1.62,0.64
			c0.42,0.43,0.64,0.96,0.64,1.62v65.07c0,0.65-0.21,1.19-0.64,1.62c-0.43,0.43-0.96,0.64-1.62,0.64h-4.41
			c-0.72,0-1.27-0.21-1.67-0.64c-0.39-0.42-0.59-0.96-0.59-1.62v-4.12c-1.63,2.09-3.76,3.84-6.37,5.24
			C416.91,878.85,413.64,879.55,409.72,879.55z M411.78,871.61c3.27,0,5.88-0.75,7.84-2.25c1.96-1.5,3.43-3.41,4.41-5.73
			c0.98-2.32,1.5-4.69,1.57-7.1c0.06-1.04,0.1-2.3,0.1-3.77c0-1.47-0.03-2.73-0.1-3.77c-0.07-2.29-0.6-4.54-1.62-6.76
			c-1.01-2.22-2.52-4.05-4.51-5.49c-1.99-1.44-4.56-2.16-7.69-2.16c-3.33,0-5.98,0.74-7.94,2.21s-3.37,3.4-4.21,5.78
			c-0.85,2.39-1.34,4.95-1.47,7.69c-0.07,1.9-0.07,3.79,0,5.68c0.13,2.74,0.62,5.31,1.47,7.69c0.85,2.39,2.25,4.31,4.21,5.78
			S408.45,871.61,411.78,871.61z"/>
		<path class="st5" d="M147.67,997.15c-4.64,0-8.64-0.9-12-2.7c-3.37-1.8-5.96-4.38-7.79-7.74c-1.83-3.36-2.81-7.4-2.94-12.1
			c-0.07-0.98-0.1-2.29-0.1-3.92c0-1.63,0.03-2.94,0.1-3.92c0.13-4.7,1.11-8.74,2.94-12.1c1.83-3.36,4.42-5.94,7.79-7.74
			c3.36-1.8,7.37-2.7,12-2.7c3.79,0,7.04,0.52,9.75,1.57c2.71,1.05,4.95,2.39,6.71,4.02c1.76,1.63,3.09,3.4,3.97,5.29
			c0.88,1.9,1.36,3.69,1.42,5.39c0.06,0.65-0.13,1.18-0.59,1.57c-0.46,0.39-1.01,0.59-1.67,0.59h-4.7c-0.65,0-1.14-0.15-1.47-0.44
			c-0.33-0.29-0.65-0.8-0.98-1.52c-1.18-3.2-2.78-5.46-4.8-6.76c-2.03-1.31-4.54-1.96-7.55-1.96c-3.92,0-7.1,1.21-9.55,3.63
			c-2.45,2.42-3.77,6.31-3.97,11.66c-0.07,2.35-0.07,4.64,0,6.86c0.2,5.42,1.52,9.33,3.97,11.71c2.45,2.39,5.63,3.58,9.55,3.58
			c3,0,5.52-0.65,7.55-1.96c2.02-1.31,3.63-3.56,4.8-6.76c0.33-0.72,0.65-1.22,0.98-1.52c0.33-0.29,0.82-0.44,1.47-0.44h4.7
			c0.65,0,1.21,0.2,1.67,0.59c0.46,0.39,0.65,0.92,0.59,1.57c-0.07,1.37-0.36,2.78-0.88,4.21c-0.52,1.44-1.36,2.89-2.5,4.36
			c-1.14,1.47-2.56,2.78-4.26,3.92c-1.7,1.14-3.74,2.06-6.12,2.74C153.37,996.81,150.68,997.15,147.67,997.15z"/>
		<path class="st5" d="M183.44,996.17c-0.65,0-1.19-0.21-1.62-0.64c-0.43-0.42-0.64-0.96-0.64-1.62v-46.45
			c0-0.65,0.21-1.19,0.64-1.62c0.42-0.42,0.96-0.64,1.62-0.64h4.41c0.65,0,1.19,0.21,1.62,0.64c0.42,0.43,0.64,0.96,0.64,1.62v3.43
			c1.5-2.02,3.4-3.64,5.68-4.85c2.29-1.21,5.03-1.81,8.23-1.81c7.38-0.06,12.61,2.94,15.68,9.02c1.5-2.74,3.69-4.93,6.57-6.57
			c2.87-1.63,6.14-2.45,9.8-2.45c3.4,0,6.48,0.78,9.26,2.35c2.78,1.57,4.96,3.94,6.57,7.1c1.6,3.17,2.4,7.14,2.4,11.91v28.32
			c0,0.65-0.21,1.19-0.64,1.62c-0.43,0.43-0.96,0.64-1.62,0.64h-4.61c-0.65,0-1.19-0.21-1.62-0.64c-0.43-0.42-0.64-0.96-0.64-1.62
			v-27.44c0-3.66-0.52-6.53-1.57-8.62c-1.05-2.09-2.45-3.56-4.21-4.41c-1.76-0.85-3.69-1.27-5.78-1.27c-1.7,0-3.43,0.43-5.19,1.27
			c-1.76,0.85-3.22,2.32-4.36,4.41c-1.14,2.09-1.71,4.97-1.71,8.62v27.44c0,0.65-0.21,1.19-0.64,1.62
			c-0.43,0.43-0.96,0.64-1.62,0.64h-4.61c-0.65,0-1.19-0.21-1.62-0.64c-0.42-0.42-0.64-0.96-0.64-1.62v-27.44
			c0-3.66-0.56-6.53-1.67-8.62c-1.11-2.09-2.55-3.56-4.31-4.41c-1.76-0.85-3.63-1.27-5.59-1.27c-1.7,0-3.43,0.43-5.19,1.27
			c-1.76,0.85-3.22,2.32-4.36,4.41c-1.14,2.09-1.71,4.93-1.71,8.53v27.54c0,0.65-0.21,1.19-0.64,1.62
			c-0.43,0.43-0.96,0.64-1.62,0.64H183.44z"/>
		<path class="st5" d="M275.66,1014.79c-0.52,0-0.98-0.2-1.37-0.59c-0.39-0.39-0.59-0.85-0.59-1.37c0-0.26,0.03-0.52,0.1-0.78
			c0.06-0.26,0.2-0.59,0.39-0.98l7.55-17.93l-18.72-44.2c-0.33-0.78-0.49-1.34-0.49-1.67c0-0.59,0.2-1.08,0.59-1.47
			s0.88-0.59,1.47-0.59h4.8c0.65,0,1.18,0.16,1.57,0.49c0.39,0.33,0.65,0.72,0.78,1.18l14.9,35.67l15.29-35.67
			c0.2-0.46,0.47-0.85,0.83-1.18c0.36-0.33,0.9-0.49,1.62-0.49h4.61c0.59,0,1.08,0.2,1.47,0.59s0.59,0.85,0.59,1.37
			c0,0.33-0.16,0.92-0.49,1.76l-27.83,64.19c-0.2,0.46-0.47,0.85-0.83,1.18c-0.36,0.33-0.9,0.49-1.62,0.49H275.66z"/>
		<path class="st5" d="M323.09,996.17c-0.65,0-1.19-0.21-1.62-0.64c-0.43-0.42-0.64-0.96-0.64-1.62v-65.07
			c0-0.65,0.21-1.19,0.64-1.62c0.42-0.42,0.96-0.64,1.62-0.64h4.61c0.65,0,1.19,0.21,1.62,0.64c0.42,0.43,0.64,0.96,0.64,1.62v34.1
			l19.31-16.07c0.78-0.65,1.39-1.09,1.81-1.32c0.42-0.23,1.13-0.34,2.11-0.34h5.19c0.59,0,1.08,0.2,1.47,0.59
			c0.39,0.39,0.59,0.88,0.59,1.47c0,0.26-0.08,0.56-0.25,0.88c-0.16,0.33-0.47,0.65-0.93,0.98l-22.64,18.82l25.09,24.4
			c0.78,0.65,1.18,1.24,1.18,1.76c0,0.59-0.2,1.08-0.59,1.47c-0.39,0.39-0.88,0.59-1.47,0.59h-5.1c-0.98,0-1.7-0.11-2.16-0.34
			c-0.46-0.23-1.05-0.67-1.76-1.32l-21.85-20.87v20.29c0,0.65-0.21,1.19-0.64,1.62c-0.43,0.43-0.96,0.64-1.62,0.64H323.09z"/>
		<path class="st5" d="M415.6,1011.75c-4.25,0-7.84-0.9-10.78-2.7c-2.94-1.8-5.29-4.56-7.06-8.28c-1.76-3.72-3.05-8.48-3.87-14.26
			c-0.82-5.78-1.22-12.66-1.22-20.63c0-7.97,0.41-14.85,1.22-20.63c0.82-5.78,2.11-10.54,3.87-14.26c1.76-3.72,4.12-6.47,7.06-8.23
			c2.94-1.76,6.53-2.65,10.78-2.65c0.59,0,1.11,0.23,1.57,0.69c0.46,0.46,0.69,0.98,0.69,1.57v3.43c0,0.59-0.21,1.11-0.64,1.57
			c-0.43,0.46-0.87,0.69-1.32,0.69c-2.74,0.07-5.05,0.77-6.91,2.11c-1.86,1.34-3.37,3.48-4.51,6.42c-1.14,2.94-1.96,6.81-2.45,11.61
			c-0.49,4.8-0.74,10.7-0.74,17.69c0,6.99,0.25,12.89,0.74,17.69c0.49,4.8,1.31,8.69,2.45,11.66c1.14,2.97,2.65,5.13,4.51,6.47
			c1.86,1.34,4.17,2.04,6.91,2.11c0.46,0,0.9,0.23,1.32,0.69c0.42,0.46,0.64,0.98,0.64,1.57v3.43c0,0.59-0.23,1.11-0.69,1.57
			C416.71,1011.52,416.19,1011.75,415.6,1011.75z"/>
		<path class="st5" d="M448.53,997.15c-4.51,0-8.32-0.7-11.42-2.11c-3.1-1.4-5.64-3.35-7.6-5.83c-1.96-2.48-3.38-5.32-4.26-8.53
			c-0.88-3.2-1.39-6.6-1.52-10.19c-0.07-1.76-0.12-3.63-0.15-5.59c-0.03-1.96-0.03-3.94,0-5.93c0.03-1.99,0.08-3.9,0.15-5.73
			c0.06-3.59,0.57-7.01,1.52-10.24c0.95-3.23,2.38-6.08,4.31-8.53c1.93-2.45,4.46-4.38,7.6-5.78c3.14-1.4,6.92-2.11,11.37-2.11
			c4.51,0,8.31,0.7,11.42,2.11c3.1,1.41,5.63,3.33,7.59,5.78c1.96,2.45,3.41,5.29,4.36,8.53c0.95,3.23,1.45,6.65,1.52,10.24
			c0.06,1.83,0.11,3.74,0.15,5.73c0.03,1.99,0.03,3.97,0,5.93c-0.03,1.96-0.08,3.82-0.15,5.59c-0.07,3.59-0.57,6.99-1.52,10.19
			c-0.95,3.2-2.39,6.04-4.31,8.53c-1.93,2.48-4.44,4.43-7.55,5.83C456.94,996.45,453.1,997.15,448.53,997.15z M448.53,988.82
			c5.1,0,8.87-1.68,11.32-5.05c2.45-3.36,3.71-7.95,3.77-13.77c0.13-1.89,0.2-3.74,0.2-5.54c0-1.8,0-3.59,0-5.39
			c0-1.8-0.07-3.58-0.2-5.34c-0.07-5.68-1.32-10.24-3.77-13.67c-2.45-3.43-6.22-5.14-11.32-5.14c-5.03,0-8.77,1.71-11.22,5.14
			c-2.45,3.43-3.74,7.99-3.87,13.67c0,1.76-0.02,3.54-0.05,5.34c-0.03,1.8-0.03,3.59,0,5.39c0.03,1.8,0.05,3.64,0.05,5.54
			c0.13,5.82,1.44,10.41,3.92,13.77C439.84,987.14,443.56,988.82,448.53,988.82z"/>
		<path class="st5" d="M484.79,1003.52c-0.52,0-0.93-0.2-1.23-0.59c-0.29-0.39-0.41-0.88-0.34-1.47l2.25-14.01
			c0.13-0.78,0.41-1.45,0.83-2.01c0.42-0.55,1.06-0.83,1.91-0.83h6.57c0.46,0,0.83,0.16,1.13,0.49c0.29,0.33,0.44,0.72,0.44,1.18
			c0,0.52-0.13,1.05-0.39,1.57l-5.1,13.43c-0.26,0.65-0.6,1.19-1.03,1.62c-0.43,0.42-1.03,0.64-1.81,0.64H484.79z"/>
		<path class="st5" d="M532.22,997.15c-4.51,0-8.32-0.7-11.42-2.11c-3.1-1.4-5.64-3.35-7.6-5.83c-1.96-2.48-3.38-5.32-4.26-8.53
			c-0.88-3.2-1.39-6.6-1.52-10.19c-0.07-1.76-0.12-3.63-0.15-5.59c-0.03-1.96-0.03-3.94,0-5.93c0.03-1.99,0.08-3.9,0.15-5.73
			c0.06-3.59,0.57-7.01,1.52-10.24c0.95-3.23,2.38-6.08,4.31-8.53c1.93-2.45,4.46-4.38,7.6-5.78c3.14-1.4,6.92-2.11,11.37-2.11
			c4.51,0,8.31,0.7,11.42,2.11c3.1,1.41,5.63,3.33,7.59,5.78c1.96,2.45,3.41,5.29,4.36,8.53c0.95,3.23,1.45,6.65,1.52,10.24
			c0.06,1.83,0.11,3.74,0.15,5.73c0.03,1.99,0.03,3.97,0,5.93c-0.03,1.96-0.08,3.82-0.15,5.59c-0.07,3.59-0.57,6.99-1.52,10.19
			c-0.95,3.2-2.39,6.04-4.31,8.53c-1.93,2.48-4.44,4.43-7.55,5.83C540.63,996.45,536.79,997.15,532.22,997.15z M532.22,988.82
			c5.1,0,8.87-1.68,11.32-5.05c2.45-3.36,3.71-7.95,3.77-13.77c0.13-1.89,0.2-3.74,0.2-5.54c0-1.8,0-3.59,0-5.39
			c0-1.8-0.07-3.58-0.2-5.34c-0.07-5.68-1.32-10.24-3.77-13.67c-2.45-3.43-6.22-5.14-11.32-5.14c-5.03,0-8.77,1.71-11.22,5.14
			c-2.45,3.43-3.74,7.99-3.87,13.67c0,1.76-0.02,3.54-0.05,5.34c-0.03,1.8-0.03,3.59,0,5.39c0.03,1.8,0.05,3.64,0.05,5.54
			c0.13,5.82,1.44,10.41,3.92,13.77C523.53,987.14,527.26,988.82,532.22,988.82z"/>
		<path class="st5" d="M568.48,1003.52c-0.52,0-0.93-0.2-1.23-0.59c-0.29-0.39-0.41-0.88-0.34-1.47l2.25-14.01
			c0.13-0.78,0.41-1.45,0.83-2.01c0.42-0.55,1.06-0.83,1.91-0.83h6.57c0.46,0,0.83,0.16,1.13,0.49c0.29,0.33,0.44,0.72,0.44,1.18
			c0,0.52-0.13,1.05-0.39,1.57l-5.1,13.43c-0.26,0.65-0.6,1.19-1.03,1.62c-0.43,0.42-1.03,0.64-1.81,0.64H568.48z"/>
		<path class="st5" d="M615.91,997.15c-4.51,0-8.32-0.7-11.42-2.11c-3.1-1.4-5.64-3.35-7.6-5.83c-1.96-2.48-3.38-5.32-4.26-8.53
			c-0.88-3.2-1.39-6.6-1.52-10.19c-0.07-1.76-0.12-3.63-0.15-5.59c-0.03-1.96-0.03-3.94,0-5.93c0.03-1.99,0.08-3.9,0.15-5.73
			c0.06-3.59,0.57-7.01,1.52-10.24c0.95-3.23,2.38-6.08,4.31-8.53c1.93-2.45,4.46-4.38,7.6-5.78c3.14-1.4,6.92-2.11,11.37-2.11
			c4.51,0,8.31,0.7,11.42,2.11c3.1,1.41,5.63,3.33,7.59,5.78c1.96,2.45,3.41,5.29,4.36,8.53c0.95,3.23,1.45,6.65,1.52,10.24
			c0.06,1.83,0.11,3.74,0.15,5.73c0.03,1.99,0.03,3.97,0,5.93c-0.03,1.96-0.08,3.82-0.15,5.59c-0.07,3.59-0.57,6.99-1.52,10.19
			c-0.95,3.2-2.39,6.04-4.31,8.53c-1.93,2.48-4.44,4.43-7.55,5.83C624.32,996.45,620.49,997.15,615.91,997.15z M615.91,988.82
			c5.1,0,8.87-1.68,11.32-5.05c2.45-3.36,3.71-7.95,3.77-13.77c0.13-1.89,0.2-3.74,0.2-5.54c0-1.8,0-3.59,0-5.39
			c0-1.8-0.07-3.58-0.2-5.34c-0.07-5.68-1.32-10.24-3.77-13.67c-2.45-3.43-6.22-5.14-11.32-5.14c-5.03,0-8.77,1.71-11.22,5.14
			c-2.45,3.43-3.74,7.99-3.87,13.67c0,1.76-0.02,3.54-0.05,5.34c-0.03,1.8-0.03,3.59,0,5.39c0.03,1.8,0.05,3.64,0.05,5.54
			c0.13,5.82,1.44,10.41,3.92,13.77C607.22,987.14,610.95,988.82,615.91,988.82z"/>
		<path class="st5" d="M652.17,1003.52c-0.52,0-0.93-0.2-1.23-0.59c-0.29-0.39-0.41-0.88-0.34-1.47l2.25-14.01
			c0.13-0.78,0.41-1.45,0.83-2.01c0.42-0.55,1.06-0.83,1.91-0.83h6.57c0.46,0,0.83,0.16,1.13,0.49c0.29,0.33,0.44,0.72,0.44,1.18
			c0,0.52-0.13,1.05-0.39,1.57l-5.1,13.43c-0.26,0.65-0.6,1.19-1.03,1.62c-0.43,0.42-1.03,0.64-1.81,0.64H652.17z"/>
		<path class="st5" d="M699.6,997.15c-4.51,0-8.32-0.7-11.42-2.11c-3.1-1.4-5.64-3.35-7.6-5.83c-1.96-2.48-3.38-5.32-4.26-8.53
			c-0.88-3.2-1.39-6.6-1.52-10.19c-0.07-1.76-0.12-3.63-0.15-5.59c-0.03-1.96-0.03-3.94,0-5.93c0.03-1.99,0.08-3.9,0.15-5.73
			c0.06-3.59,0.57-7.01,1.52-10.24c0.95-3.23,2.38-6.08,4.31-8.53c1.93-2.45,4.46-4.38,7.6-5.78c3.14-1.4,6.92-2.11,11.37-2.11
			c4.51,0,8.31,0.7,11.42,2.11c3.1,1.41,5.63,3.33,7.59,5.78c1.96,2.45,3.41,5.29,4.36,8.53c0.95,3.23,1.45,6.65,1.52,10.24
			c0.06,1.83,0.11,3.74,0.15,5.73c0.03,1.99,0.03,3.97,0,5.93c-0.03,1.96-0.08,3.82-0.15,5.59c-0.07,3.59-0.57,6.99-1.52,10.19
			c-0.95,3.2-2.39,6.04-4.31,8.53c-1.93,2.48-4.44,4.43-7.55,5.83C708.01,996.45,704.18,997.15,699.6,997.15z M699.6,988.82
			c5.1,0,8.87-1.68,11.32-5.05c2.45-3.36,3.71-7.95,3.77-13.77c0.13-1.89,0.2-3.74,0.2-5.54c0-1.8,0-3.59,0-5.39
			c0-1.8-0.07-3.58-0.2-5.34c-0.07-5.68-1.32-10.24-3.77-13.67c-2.45-3.43-6.22-5.14-11.32-5.14c-5.03,0-8.77,1.71-11.22,5.14
			c-2.45,3.43-3.74,7.99-3.87,13.67c0,1.76-0.02,3.54-0.05,5.34c-0.03,1.8-0.03,3.59,0,5.39c0.03,1.8,0.05,3.64,0.05,5.54
			c0.13,5.82,1.44,10.41,3.92,13.77C690.91,987.14,694.64,988.82,699.6,988.82z"/>
		<path class="st5" d="M732.63,1011.75c-0.59,0-1.11-0.23-1.57-0.69c-0.46-0.46-0.69-0.98-0.69-1.57v-3.43
			c0-0.59,0.21-1.11,0.64-1.57c0.42-0.46,0.9-0.69,1.42-0.69c2.74-0.07,5.05-0.77,6.91-2.11c1.86-1.34,3.35-3.5,4.46-6.47
			c1.11-2.97,1.93-6.86,2.45-11.66c0.52-4.8,0.78-10.7,0.78-17.69c0-6.99-0.26-12.89-0.78-17.69c-0.52-4.8-1.34-8.67-2.45-11.61
			c-1.11-2.94-2.6-5.08-4.46-6.42c-1.86-1.34-4.17-2.04-6.91-2.11c-0.52,0-1-0.23-1.42-0.69c-0.43-0.46-0.64-0.98-0.64-1.57v-3.43
			c0-0.59,0.23-1.11,0.69-1.57c0.46-0.46,0.98-0.69,1.57-0.69c4.25,0,7.84,0.88,10.78,2.65c2.94,1.76,5.29,4.51,7.06,8.23
			c1.76,3.72,3.05,8.48,3.87,14.26c0.82,5.78,1.22,12.66,1.22,20.63c0,7.97-0.41,14.85-1.22,20.63c-0.82,5.78-2.11,10.54-3.87,14.26
			c-1.76,3.72-4.12,6.48-7.06,8.28C740.47,1010.85,736.87,1011.75,732.63,1011.75z"/>
		<path class="st5" d="M129.35,1113.77c-0.65,0-1.19-0.21-1.62-0.64c-0.43-0.42-0.64-0.96-0.64-1.62v-46.35
			c0-0.65,0.21-1.21,0.64-1.67c0.42-0.46,0.96-0.69,1.62-0.69h4.51c0.65,0,1.21,0.23,1.67,0.69c0.46,0.46,0.69,1.01,0.69,1.67v4.31
			c1.31-2.22,3.1-3.89,5.39-5c2.29-1.11,5.03-1.67,8.23-1.67h3.92c0.65,0,1.18,0.21,1.57,0.64c0.39,0.43,0.59,0.96,0.59,1.62v4.02
			c0,0.65-0.2,1.18-0.59,1.57c-0.39,0.39-0.92,0.59-1.57,0.59h-5.88c-3.53,0-6.31,1.03-8.33,3.09c-2.03,2.06-3.04,4.85-3.04,8.38
			v28.81c0,0.65-0.23,1.19-0.69,1.62c-0.46,0.43-1.01,0.64-1.67,0.64H129.35z"/>
		<path class="st5" d="M184.13,1135.33c-4.44,0-8.08-0.59-10.93-1.76s-5.06-2.6-6.66-4.26c-1.6-1.67-2.74-3.33-3.43-5
			c-0.69-1.67-1.06-2.99-1.13-3.97c-0.07-0.65,0.15-1.21,0.64-1.67c0.49-0.46,1.03-0.69,1.62-0.69h4.7c0.59,0,1.08,0.13,1.47,0.39
			c0.39,0.26,0.72,0.82,0.98,1.67c0.39,0.98,0.98,2.07,1.76,3.28c0.78,1.21,1.99,2.25,3.63,3.14c1.63,0.88,3.92,1.32,6.86,1.32
			c3.07,0,5.65-0.41,7.74-1.22c2.09-0.82,3.67-2.25,4.75-4.31c1.08-2.06,1.62-4.88,1.62-8.48v-6.66c-1.57,2.03-3.63,3.71-6.17,5.05
			c-2.55,1.34-5.75,2.01-9.6,2.01c-3.66,0-6.8-0.64-9.41-1.91c-2.61-1.27-4.75-3-6.42-5.19c-1.67-2.19-2.91-4.69-3.72-7.5
			c-0.82-2.81-1.29-5.75-1.42-8.82c-0.07-1.83-0.07-3.63,0-5.39c0.13-3.07,0.6-6.01,1.42-8.82c0.82-2.81,2.06-5.32,3.72-7.55
			c1.67-2.22,3.81-3.97,6.42-5.24c2.61-1.27,5.75-1.91,9.41-1.91c3.92,0,7.17,0.74,9.75,2.21c2.58,1.47,4.69,3.25,6.32,5.34v-4.21
			c0-0.65,0.21-1.21,0.64-1.67c0.42-0.46,0.96-0.69,1.62-0.69h4.51c0.65,0,1.21,0.23,1.67,0.69c0.46,0.46,0.69,1.01,0.69,1.67v47.53
			c0,4.38-0.74,8.26-2.21,11.66c-1.47,3.4-3.89,6.08-7.25,8.04C194.34,1134.35,189.81,1135.33,184.13,1135.33z M183.93,1106.32
			c3.27,0,5.9-0.75,7.89-2.25c1.99-1.5,3.46-3.4,4.41-5.68c0.95-2.29,1.45-4.61,1.52-6.96c0.06-0.91,0.1-2.04,0.1-3.38
			c0-1.34-0.03-2.47-0.1-3.38c-0.07-2.35-0.57-4.67-1.52-6.96c-0.95-2.29-2.42-4.18-4.41-5.68c-1.99-1.5-4.62-2.25-7.89-2.25
			c-3.27,0-5.88,0.74-7.84,2.21s-3.37,3.4-4.21,5.78c-0.85,2.39-1.34,4.95-1.47,7.69c-0.07,1.7-0.07,3.43,0,5.19
			c0.13,2.74,0.62,5.31,1.47,7.69c0.85,2.39,2.25,4.31,4.21,5.78C178.05,1105.59,180.67,1106.32,183.93,1106.32z"/>
		<path class="st5" d="M246.95,1114.75c-3.92,0-7.19-0.7-9.8-2.11c-2.61-1.4-4.7-3.15-6.27-5.24v4.12c0,0.65-0.21,1.19-0.64,1.62
			c-0.42,0.43-0.96,0.64-1.62,0.64h-4.51c-0.65,0-1.19-0.21-1.62-0.64c-0.43-0.42-0.64-0.96-0.64-1.62v-65.07
			c0-0.65,0.21-1.19,0.64-1.62c0.42-0.42,0.96-0.64,1.62-0.64h4.7c0.72,0,1.27,0.21,1.67,0.64c0.39,0.43,0.59,0.96,0.59,1.62v22.54
			c1.63-2.02,3.74-3.72,6.32-5.1c2.58-1.37,5.77-2.06,9.56-2.06c3.66,0,6.78,0.64,9.36,1.91c2.58,1.27,4.7,3.02,6.37,5.24
			c1.67,2.22,2.92,4.74,3.77,7.55c0.85,2.81,1.31,5.75,1.37,8.82c0.06,1.05,0.1,2.03,0.1,2.94c0,0.92-0.03,1.9-0.1,2.94
			c-0.07,3.14-0.52,6.11-1.37,8.92c-0.85,2.81-2.11,5.31-3.77,7.5c-1.67,2.19-3.79,3.92-6.37,5.19
			C253.72,1114.11,250.6,1114.75,246.95,1114.75z M244.89,1106.81c3.4,0,6.06-0.74,7.99-2.21c1.93-1.47,3.32-3.4,4.17-5.78
			c0.85-2.38,1.34-4.95,1.47-7.69c0.06-1.89,0.06-3.79,0-5.68c-0.13-2.74-0.62-5.31-1.47-7.69c-0.85-2.38-2.24-4.31-4.17-5.78
			c-1.93-1.47-4.59-2.21-7.99-2.21c-3.07,0-5.62,0.72-7.64,2.16c-2.03,1.44-3.54,3.27-4.56,5.49c-1.01,2.22-1.55,4.48-1.62,6.76
			c-0.07,1.05-0.1,2.3-0.1,3.77c0,1.47,0.03,2.73,0.1,3.77c0.13,2.42,0.67,4.79,1.62,7.1c0.95,2.32,2.42,4.23,4.41,5.73
			C239.09,1106.06,241.69,1106.81,244.89,1106.81z"/>
		<path class="st5" d="M301.33,1129.35c-4.25,0-7.84-0.9-10.78-2.7c-2.94-1.8-5.29-4.56-7.06-8.28c-1.76-3.72-3.05-8.48-3.87-14.26
			c-0.82-5.78-1.22-12.66-1.22-20.63c0-7.97,0.41-14.85,1.22-20.63c0.82-5.78,2.11-10.54,3.87-14.26c1.76-3.72,4.12-6.47,7.06-8.23
			c2.94-1.76,6.53-2.65,10.78-2.65c0.59,0,1.11,0.23,1.57,0.69c0.46,0.46,0.69,0.98,0.69,1.57v3.43c0,0.59-0.21,1.11-0.64,1.57
			c-0.43,0.46-0.87,0.69-1.32,0.69c-2.74,0.07-5.05,0.77-6.91,2.11c-1.86,1.34-3.37,3.48-4.51,6.42c-1.14,2.94-1.96,6.81-2.45,11.61
			c-0.49,4.8-0.74,10.7-0.74,17.69c0,6.99,0.25,12.89,0.74,17.69c0.49,4.8,1.31,8.69,2.45,11.66c1.14,2.97,2.65,5.13,4.51,6.47
			c1.86,1.34,4.17,2.04,6.91,2.11c0.46,0,0.9,0.23,1.32,0.69c0.42,0.46,0.64,0.98,0.64,1.57v3.43c0,0.59-0.23,1.11-0.69,1.57
			C302.44,1129.12,301.92,1129.35,301.33,1129.35z"/>
		<path class="st5" d="M311.43,1113.77c-0.65,0-1.19-0.21-1.62-0.64c-0.43-0.42-0.64-0.96-0.64-1.62v-3.14
			c0-0.59,0.16-1.24,0.49-1.96c0.33-0.72,0.98-1.5,1.96-2.35l20.78-20.78c3.33-2.81,5.96-5.21,7.89-7.2c1.93-1.99,3.3-3.9,4.12-5.73
			c0.82-1.83,1.22-3.72,1.22-5.68c0-3.72-1.05-6.68-3.14-8.87c-2.09-2.19-5.19-3.28-9.31-3.28c-2.61,0-4.87,0.54-6.76,1.62
			c-1.9,1.08-3.38,2.55-4.46,4.41c-1.08,1.86-1.78,3.97-2.11,6.32c-0.13,0.85-0.47,1.44-1.03,1.76c-0.56,0.33-1.06,0.49-1.52,0.49
			h-5.1c-0.59,0-1.08-0.18-1.47-0.54c-0.39-0.36-0.59-0.8-0.59-1.32c0.06-2.48,0.59-4.98,1.57-7.5c0.98-2.51,2.43-4.79,4.36-6.81
			c1.93-2.02,4.31-3.67,7.15-4.95c2.84-1.27,6.16-1.91,9.95-1.91c5.16,0,9.39,0.93,12.69,2.79c3.3,1.86,5.73,4.33,7.3,7.4
			c1.57,3.07,2.35,6.44,2.35,10.09c0,2.88-0.49,5.5-1.47,7.89c-0.98,2.39-2.4,4.7-4.26,6.96s-4.17,4.56-6.91,6.91l-18.82,19.11
			h30.58c0.72,0,1.29,0.2,1.71,0.59c0.42,0.39,0.64,0.95,0.64,1.67v4.02c0,0.65-0.21,1.19-0.64,1.62c-0.43,0.43-1,0.64-1.71,0.64
			H311.43z"/>
		<path class="st5" d="M390.52,1114.75c-5.16,0-9.52-0.9-13.08-2.7c-3.56-1.8-6.27-4.13-8.13-7.01c-1.86-2.87-2.86-5.91-2.99-9.11
			c-0.07-0.59,0.1-1.04,0.49-1.37c0.39-0.33,0.88-0.49,1.47-0.49h5.29c0.59,0,1.11,0.13,1.57,0.39c0.46,0.26,0.82,0.82,1.08,1.67
			c0.65,2.42,1.72,4.39,3.19,5.93c1.47,1.54,3.17,2.65,5.1,3.33c1.93,0.69,3.94,1.03,6.03,1.03c2.81,0,5.37-0.57,7.69-1.72
			c2.32-1.14,4.17-2.84,5.54-5.1s2.06-4.98,2.06-8.18c0-2.94-0.67-5.47-2.01-7.6c-1.34-2.12-3.17-3.76-5.49-4.9
			c-2.32-1.14-4.92-1.71-7.79-1.71c-2.16,0-3.92,0.26-5.29,0.78c-1.37,0.52-2.53,1.14-3.48,1.86c-0.95,0.72-1.8,1.34-2.55,1.86
			c-0.75,0.52-1.58,0.78-2.5,0.78h-5.1c-0.59,0-1.11-0.21-1.57-0.64c-0.46-0.42-0.65-0.93-0.59-1.52l3.14-32.73
			c0.06-0.78,0.31-1.39,0.74-1.81c0.42-0.42,1-0.64,1.71-0.64h34.2c0.65,0,1.19,0.21,1.62,0.64c0.42,0.43,0.64,0.96,0.64,1.62v3.82
			c0,0.72-0.21,1.27-0.64,1.67c-0.43,0.39-0.96,0.59-1.62,0.59h-28.22l-1.86,19.31c0.91-0.59,2.38-1.29,4.41-2.11
			c2.02-0.82,4.8-1.22,8.33-1.22c3.2,0,6.22,0.49,9.06,1.47c2.84,0.98,5.37,2.42,7.6,4.31c2.22,1.9,3.95,4.2,5.19,6.91
			c1.24,2.71,1.86,5.83,1.86,9.36c0,4.97-1.09,9.18-3.28,12.64c-2.19,3.46-5.16,6.09-8.92,7.89
			C399.64,1113.85,395.35,1114.75,390.52,1114.75z"/>
		<path class="st5" d="M448.73,1114.75c-5.16,0-9.52-0.9-13.08-2.7c-3.56-1.8-6.27-4.13-8.13-7.01c-1.86-2.87-2.86-5.91-2.99-9.11
			c-0.07-0.59,0.1-1.04,0.49-1.37c0.39-0.33,0.88-0.49,1.47-0.49h5.29c0.59,0,1.11,0.13,1.57,0.39c0.46,0.26,0.82,0.82,1.08,1.67
			c0.65,2.42,1.72,4.39,3.19,5.93c1.47,1.54,3.17,2.65,5.1,3.33c1.93,0.69,3.94,1.03,6.03,1.03c2.81,0,5.37-0.57,7.69-1.72
			c2.32-1.14,4.17-2.84,5.54-5.1s2.06-4.98,2.06-8.18c0-2.94-0.67-5.47-2.01-7.6c-1.34-2.12-3.17-3.76-5.49-4.9
			c-2.32-1.14-4.92-1.71-7.79-1.71c-2.16,0-3.92,0.26-5.29,0.78c-1.37,0.52-2.53,1.14-3.48,1.86c-0.95,0.72-1.8,1.34-2.55,1.86
			c-0.75,0.52-1.58,0.78-2.5,0.78h-5.1c-0.59,0-1.11-0.21-1.57-0.64c-0.46-0.42-0.65-0.93-0.59-1.52l3.14-32.73
			c0.06-0.78,0.31-1.39,0.74-1.81c0.42-0.42,1-0.64,1.71-0.64h34.2c0.65,0,1.19,0.21,1.62,0.64c0.42,0.43,0.64,0.96,0.64,1.62v3.82
			c0,0.72-0.21,1.27-0.64,1.67c-0.43,0.39-0.96,0.59-1.62,0.59h-28.22l-1.86,19.31c0.91-0.59,2.38-1.29,4.41-2.11
			c2.02-0.82,4.8-1.22,8.33-1.22c3.2,0,6.22,0.49,9.06,1.47c2.84,0.98,5.37,2.42,7.6,4.31c2.22,1.9,3.95,4.2,5.19,6.91
			c1.24,2.71,1.86,5.83,1.86,9.36c0,4.97-1.09,9.18-3.28,12.64c-2.19,3.46-5.16,6.09-8.92,7.89
			C457.86,1113.85,453.56,1114.75,448.73,1114.75z"/>
		<path class="st5" d="M484.01,1121.12c-0.52,0-0.93-0.2-1.23-0.59c-0.29-0.39-0.41-0.88-0.34-1.47l2.25-14.01
			c0.13-0.78,0.41-1.45,0.83-2.01c0.42-0.55,1.06-0.83,1.91-0.83H494c0.46,0,0.83,0.16,1.13,0.49c0.29,0.33,0.44,0.72,0.44,1.18
			c0,0.52-0.13,1.05-0.39,1.57l-5.1,13.43c-0.26,0.65-0.6,1.19-1.03,1.62c-0.43,0.42-1.03,0.64-1.81,0.64H484.01z"/>
		<path class="st5" d="M508.9,1113.77c-0.65,0-1.19-0.21-1.62-0.64c-0.43-0.42-0.64-0.96-0.64-1.62v-3.14
			c0-0.59,0.16-1.24,0.49-1.96c0.33-0.72,0.98-1.5,1.96-2.35l20.78-20.78c3.33-2.81,5.96-5.21,7.89-7.2c1.93-1.99,3.3-3.9,4.12-5.73
			c0.82-1.83,1.22-3.72,1.22-5.68c0-3.72-1.05-6.68-3.14-8.87c-2.09-2.19-5.19-3.28-9.31-3.28c-2.61,0-4.87,0.54-6.76,1.62
			c-1.9,1.08-3.38,2.55-4.46,4.41c-1.08,1.86-1.78,3.97-2.11,6.32c-0.13,0.85-0.47,1.44-1.03,1.76c-0.56,0.33-1.06,0.49-1.52,0.49
			h-5.1c-0.59,0-1.08-0.18-1.47-0.54c-0.39-0.36-0.59-0.8-0.59-1.32c0.06-2.48,0.59-4.98,1.57-7.5c0.98-2.51,2.43-4.79,4.36-6.81
			c1.93-2.02,4.31-3.67,7.15-4.95c2.84-1.27,6.16-1.91,9.95-1.91c5.16,0,9.39,0.93,12.69,2.79c3.3,1.86,5.73,4.33,7.3,7.4
			c1.57,3.07,2.35,6.44,2.35,10.09c0,2.88-0.49,5.5-1.47,7.89c-0.98,2.39-2.4,4.7-4.26,6.96s-4.17,4.56-6.91,6.91l-18.82,19.11
			h30.58c0.72,0,1.29,0.2,1.71,0.59c0.42,0.39,0.64,0.95,0.64,1.67v4.02c0,0.65-0.21,1.19-0.64,1.62c-0.43,0.43-1,0.64-1.71,0.64
			H508.9z"/>
		<path class="st5" d="M587.98,1114.75c-5.16,0-9.52-0.9-13.08-2.7c-3.56-1.8-6.27-4.13-8.13-7.01c-1.86-2.87-2.86-5.91-2.99-9.11
			c-0.07-0.59,0.1-1.04,0.49-1.37c0.39-0.33,0.88-0.49,1.47-0.49h5.29c0.59,0,1.11,0.13,1.57,0.39c0.46,0.26,0.82,0.82,1.08,1.67
			c0.65,2.42,1.72,4.39,3.19,5.93c1.47,1.54,3.17,2.65,5.1,3.33c1.93,0.69,3.94,1.03,6.03,1.03c2.81,0,5.37-0.57,7.69-1.72
			c2.32-1.14,4.17-2.84,5.54-5.1s2.06-4.98,2.06-8.18c0-2.94-0.67-5.47-2.01-7.6c-1.34-2.12-3.17-3.76-5.49-4.9
			c-2.32-1.14-4.92-1.71-7.79-1.71c-2.16,0-3.92,0.26-5.29,0.78c-1.37,0.52-2.53,1.14-3.48,1.86c-0.95,0.72-1.8,1.34-2.55,1.86
			c-0.75,0.52-1.58,0.78-2.5,0.78h-5.1c-0.59,0-1.11-0.21-1.57-0.64c-0.46-0.42-0.65-0.93-0.59-1.52l3.14-32.73
			c0.06-0.78,0.31-1.39,0.74-1.81c0.42-0.42,1-0.64,1.71-0.64h34.2c0.65,0,1.19,0.21,1.62,0.64c0.42,0.43,0.64,0.96,0.64,1.62v3.82
			c0,0.72-0.21,1.27-0.64,1.67c-0.43,0.39-0.96,0.59-1.62,0.59h-28.22l-1.86,19.31c0.91-0.59,2.38-1.29,4.41-2.11
			c2.02-0.82,4.8-1.22,8.33-1.22c3.2,0,6.22,0.49,9.06,1.47c2.84,0.98,5.37,2.42,7.6,4.31c2.22,1.9,3.95,4.2,5.19,6.91
			c1.24,2.71,1.86,5.83,1.86,9.36c0,4.97-1.09,9.18-3.28,12.64c-2.19,3.46-5.16,6.09-8.92,7.89
			C597.11,1113.85,592.82,1114.75,587.98,1114.75z"/>
		<path class="st5" d="M656.88,1113.77c-0.65,0-1.19-0.21-1.62-0.64c-0.43-0.42-0.64-0.96-0.64-1.62v-14.11h-31.75
			c-0.65,0-1.19-0.21-1.62-0.64c-0.43-0.42-0.64-0.96-0.64-1.62v-3.92c0-0.26,0.08-0.67,0.25-1.22c0.16-0.55,0.44-1.13,0.83-1.72
			l29.4-41.45c0.78-1.11,1.99-1.67,3.63-1.67h7.06c0.65,0,1.19,0.21,1.62,0.64c0.42,0.43,0.64,0.96,0.64,1.62v41.45h8.82
			c0.72,0,1.29,0.21,1.71,0.64c0.42,0.43,0.64,0.96,0.64,1.62v4.02c0,0.65-0.21,1.19-0.64,1.62c-0.43,0.43-0.96,0.64-1.62,0.64
			h-8.92v14.11c0,0.65-0.21,1.19-0.64,1.62c-0.43,0.43-0.96,0.64-1.62,0.64H656.88z M631.1,1089.07h23.62v-33.61L631.1,1089.07z"/>
		<path class="st5" d="M683.53,1121.12c-0.52,0-0.93-0.2-1.23-0.59c-0.29-0.39-0.41-0.88-0.34-1.47l2.25-14.01
			c0.13-0.78,0.41-1.45,0.83-2.01c0.42-0.55,1.06-0.83,1.91-0.83h6.57c0.46,0,0.83,0.16,1.13,0.49c0.29,0.33,0.44,0.72,0.44,1.18
			c0,0.52-0.13,1.05-0.39,1.57l-5.1,13.43c-0.26,0.65-0.6,1.19-1.03,1.62c-0.43,0.42-1.03,0.64-1.81,0.64H683.53z"/>
		<path class="st5" d="M708.42,1113.77c-0.65,0-1.19-0.21-1.62-0.64c-0.43-0.42-0.64-0.96-0.64-1.62v-3.14
			c0-0.59,0.16-1.24,0.49-1.96c0.33-0.72,0.98-1.5,1.96-2.35l20.78-20.78c3.33-2.81,5.96-5.21,7.89-7.2c1.93-1.99,3.3-3.9,4.12-5.73
			c0.82-1.83,1.22-3.72,1.22-5.68c0-3.72-1.05-6.68-3.14-8.87c-2.09-2.19-5.19-3.28-9.31-3.28c-2.61,0-4.87,0.54-6.76,1.62
			c-1.9,1.08-3.38,2.55-4.46,4.41c-1.08,1.86-1.78,3.97-2.11,6.32c-0.13,0.85-0.47,1.44-1.03,1.76c-0.56,0.33-1.06,0.49-1.52,0.49
			h-5.1c-0.59,0-1.08-0.18-1.47-0.54c-0.39-0.36-0.59-0.8-0.59-1.32c0.06-2.48,0.59-4.98,1.57-7.5c0.98-2.51,2.43-4.79,4.36-6.81
			c1.93-2.02,4.31-3.67,7.15-4.95c2.84-1.27,6.16-1.91,9.95-1.91c5.16,0,9.39,0.93,12.69,2.79c3.3,1.86,5.73,4.33,7.3,7.4
			c1.57,3.07,2.35,6.44,2.35,10.09c0,2.88-0.49,5.5-1.47,7.89c-0.98,2.39-2.4,4.7-4.26,6.96s-4.17,4.56-6.91,6.91l-18.82,19.11
			h30.58c0.72,0,1.29,0.2,1.71,0.59c0.42,0.39,0.64,0.95,0.64,1.67v4.02c0,0.65-0.21,1.19-0.64,1.62c-0.43,0.43-1,0.64-1.71,0.64
			H708.42z"/>
		<path class="st5" d="M787.51,1114.75c-5.16,0-9.52-0.9-13.08-2.7c-3.56-1.8-6.27-4.13-8.13-7.01c-1.86-2.87-2.86-5.91-2.99-9.11
			c-0.07-0.59,0.1-1.04,0.49-1.37c0.39-0.33,0.88-0.49,1.47-0.49h5.29c0.59,0,1.11,0.13,1.57,0.39c0.46,0.26,0.82,0.82,1.08,1.67
			c0.65,2.42,1.72,4.39,3.19,5.93c1.47,1.54,3.17,2.65,5.1,3.33c1.93,0.69,3.94,1.03,6.03,1.03c2.81,0,5.37-0.57,7.69-1.72
			c2.32-1.14,4.17-2.84,5.54-5.1s2.06-4.98,2.06-8.18c0-2.94-0.67-5.47-2.01-7.6c-1.34-2.12-3.17-3.76-5.49-4.9
			c-2.32-1.14-4.92-1.71-7.79-1.71c-2.16,0-3.92,0.26-5.29,0.78c-1.37,0.52-2.53,1.14-3.48,1.86c-0.95,0.72-1.8,1.34-2.55,1.86
			c-0.75,0.52-1.58,0.78-2.5,0.78h-5.1c-0.59,0-1.11-0.21-1.57-0.64c-0.46-0.42-0.65-0.93-0.59-1.52l3.14-32.73
			c0.06-0.78,0.31-1.39,0.74-1.81c0.42-0.42,1-0.64,1.71-0.64h34.2c0.65,0,1.19,0.21,1.62,0.64c0.42,0.43,0.64,0.96,0.64,1.62v3.82
			c0,0.72-0.21,1.27-0.64,1.67c-0.43,0.39-0.96,0.59-1.62,0.59H778l-1.86,19.31c0.91-0.59,2.38-1.29,4.41-2.11
			c2.02-0.82,4.8-1.22,8.33-1.22c3.2,0,6.22,0.49,9.06,1.47c2.84,0.98,5.37,2.42,7.6,4.31c2.22,1.9,3.95,4.2,5.19,6.91
			c1.24,2.71,1.86,5.83,1.86,9.36c0,4.97-1.09,9.18-3.28,12.64c-2.19,3.46-5.16,6.09-8.92,7.89
			C796.64,1113.85,792.34,1114.75,787.51,1114.75z"/>
		<path class="st5" d="M846.31,1114.75c-4.12,0-7.71-0.51-10.78-1.52c-3.07-1.01-5.65-2.37-7.74-4.07c-2.09-1.7-3.67-3.56-4.75-5.59
			c-1.08-2.02-1.65-4.12-1.71-6.27c0-0.59,0.2-1.04,0.59-1.37c0.39-0.33,0.88-0.49,1.47-0.49h4.8c0.59,0,1.11,0.13,1.57,0.39
			c0.46,0.26,0.85,0.82,1.18,1.67c0.65,2.35,1.78,4.18,3.38,5.49c1.6,1.31,3.46,2.21,5.59,2.7c2.12,0.49,4.26,0.74,6.42,0.74
			c4.51,0,8.17-1.08,10.98-3.23c2.81-2.16,4.21-5.32,4.21-9.51c0-4.25-1.27-7.28-3.82-9.11c-2.55-1.83-6.08-2.74-10.58-2.74h-9.31
			c-0.65,0-1.19-0.2-1.62-0.59c-0.42-0.39-0.64-0.95-0.64-1.67v-2.65c0-0.59,0.11-1.09,0.34-1.52c0.23-0.42,0.47-0.8,0.74-1.13
			l19.01-20.78h-28.91c-0.65,0-1.19-0.2-1.62-0.59c-0.43-0.39-0.64-0.95-0.64-1.67v-3.72c0-0.72,0.21-1.29,0.64-1.71
			c0.42-0.42,0.96-0.64,1.62-0.64h39.1c0.72,0,1.29,0.21,1.71,0.64c0.42,0.43,0.64,1,0.64,1.71v3.53c0,0.46-0.11,0.87-0.34,1.22
			c-0.23,0.36-0.47,0.7-0.73,1.03l-18.91,21.07l1.57,0.1c4.31,0.13,8.08,0.92,11.32,2.35c3.23,1.44,5.75,3.58,7.55,6.42
			c1.8,2.84,2.7,6.42,2.7,10.73c0,4.38-1.08,8.12-3.23,11.22c-2.16,3.1-5.13,5.47-8.92,7.11
			C855.36,1113.93,851.08,1114.75,846.31,1114.75z"/>
		<path class="st5" d="M880.61,1129.35c-0.59,0-1.11-0.23-1.57-0.69c-0.46-0.46-0.69-0.98-0.69-1.57v-3.43
			c0-0.59,0.21-1.11,0.64-1.57c0.42-0.46,0.9-0.69,1.42-0.69c2.74-0.07,5.05-0.77,6.91-2.11c1.86-1.34,3.35-3.5,4.46-6.47
			c1.11-2.97,1.93-6.86,2.45-11.66c0.52-4.8,0.78-10.7,0.78-17.69c0-6.99-0.26-12.89-0.78-17.69c-0.52-4.8-1.34-8.67-2.45-11.61
			c-1.11-2.94-2.6-5.08-4.46-6.42c-1.86-1.34-4.17-2.04-6.91-2.11c-0.52,0-1-0.23-1.42-0.69c-0.43-0.46-0.64-0.98-0.64-1.57v-3.43
			c0-0.59,0.23-1.11,0.69-1.57c0.46-0.46,0.98-0.69,1.57-0.69c4.25,0,7.84,0.88,10.78,2.65c2.94,1.76,5.29,4.51,7.06,8.23
			c1.76,3.72,3.05,8.48,3.87,14.26c0.82,5.78,1.22,12.66,1.22,20.63c0,7.97-0.41,14.85-1.22,20.63c-0.82,5.78-2.11,10.54-3.87,14.26
			c-1.76,3.72-4.12,6.48-7.06,8.28C888.45,1128.45,884.85,1129.35,880.61,1129.35z"/>
	</g>
</g>
</svg>
