<?xml version="1.0" encoding="utf-8"?>
<!-- Generator: Adobe Illustrator 25.2.1, SVG Export Plug-In . SVG Version: 6.00 Build 0)  -->
<svg version="1.1" xmlns="http://www.w3.org/2000/svg" xmlns:xlink="http://www.w3.org/1999/xlink" x="0px" y="0px"
	 viewBox="0 0 1209.6 1213.46" style="enable-background:new 0 0 1209.6 1213.46;" xml:space="preserve">
<style type="text/css">
	.st0{fill:none;stroke:#35A8E0;stroke-miterlimit:10;}
	.st1{display:none;}
	.st2{fill:none;stroke:#000000;stroke-miterlimit:10;}
	.st3{fill:#F6EB64;}
	.st4{fill:#1D1D1B;}
	.st5{fill:none;stroke:#1D1D1B;stroke-width:0.5;stroke-miterlimit:10;}
	.st6{fill:#FFFFFF;}
	.st7{fill:#E84639;}
	.st8{fill:#F9E8D5;}
	.st9{fill:#48B6A2;}
	.st10{fill:#29336B;}
	.st11{fill:#9458F4;}
	.st12{fill:#F75776;}
	.st13{opacity:0.2;fill:#009EE2;}
	.st14{opacity:0.19;}
	.st15{fill:#51BFDC;}
	.st16{fill:#6DBC8D;}
	.st17{fill:none;stroke:#F9E8D5;stroke-miterlimit:10;}
	.st18{fill:none;stroke:#35A8E0;stroke-width:0.75;stroke-miterlimit:10;}
	.st19{fill:#35A8E0;}
	.st20{opacity:0.49;}
	.st21{fill:none;stroke:#000000;stroke-width:0.75;stroke-miterlimit:10;}
	.st22{fill:none;stroke:#FFEC00;stroke-width:0.75;stroke-miterlimit:10;}
	.st23{fill:none;stroke:#F6EB64;stroke-width:3;stroke-miterlimit:10;}
	.st24{fill:none;stroke:#F75776;stroke-width:50;stroke-linejoin:round;stroke-miterlimit:10;}
	.st25{fill:none;stroke:#000000;stroke-width:18;stroke-miterlimit:10;}
</style>
<g id="guia">
</g>
<g id="Capa_3" class="st1">
</g>
<g id="Capa_4">
</g>
<g id="Capa_1">
	<g>
		<path d="M591.02,447.07c-1.64,0-3.12-0.66-4.45-1.99c-1.33-1.33-1.99-2.81-1.99-4.45c0-1.02,0.1-1.94,0.31-2.77l72.08-196.92
			c0.61-2.25,1.89-4.24,3.84-5.98c1.94-1.74,4.65-2.61,8.13-2.61h45.4c3.47,0,6.18,0.88,8.13,2.61c1.94,1.74,3.22,3.73,3.83,5.98
			l71.78,196.92c0.41,0.82,0.61,1.74,0.61,2.77c0,1.64-0.67,3.12-1.99,4.45c-1.33,1.33-2.92,1.99-4.76,1.99H754.2
			c-3.07,0-5.37-0.77-6.9-2.3c-1.53-1.53-2.51-2.91-2.91-4.14l-11.96-31.29h-81.9l-11.66,31.29c-0.41,1.23-1.33,2.61-2.76,4.14
			c-1.43,1.53-3.89,2.3-7.36,2.3H591.02z M663.1,365.17h57.05l-28.83-80.98L663.1,365.17z"/>
		<path d="M456.38,708.96c-2.25,0-4.09-0.72-5.52-2.15c-1.43-1.43-2.15-3.27-2.15-5.52V240.02c0-2.25,0.71-4.09,2.15-5.52
			c1.43-1.43,3.27-2.15,5.52-2.15h40.49c2.04,0,3.83,0.72,5.37,2.15c1.53,1.43,2.3,3.27,2.3,5.52v422.61h92.63
			c2.25,0,4.14,0.77,5.67,2.3c1.53,1.54,2.3,3.43,2.3,5.68v30.67c0,2.25-0.77,4.09-2.3,5.52s-3.43,2.15-5.67,2.15H456.38z"/>
		<path d="M653.92,708.96c-2.25,0-4.09-0.72-5.52-2.15c-1.43-1.43-2.15-3.27-2.15-5.52V542.39h-54.6c-2.25,0-4.09-0.77-5.52-2.3
			c-1.44-1.53-2.15-3.32-2.15-5.37v-32.82c0-2.25,0.71-4.09,2.15-5.52c1.43-1.43,3.27-2.15,5.52-2.15h165.03
			c2.25,0,4.09,0.72,5.52,2.15c1.43,1.43,2.15,3.27,2.15,5.52v32.82c0,2.04-0.72,3.83-2.15,5.37c-1.43,1.53-3.27,2.3-5.52,2.3h-54.6
			v158.89c0,2.25-0.72,4.09-2.15,5.52c-1.43,1.43-3.27,2.15-5.52,2.15H653.92z"/>
		<g>
			<path class="st3" d="M288.28,542.67c-18.2-0.06-36.39-0.11-54.59-0.14c-2.26-0.01-4.11-0.85-5.54-2.37
				c-1.44-1.52-2.13-3.21-2.13-5.23c0-10.83,0-21.66,0-32.49c0-2.22,0.61-4.57,1.81-7.15c1.2-2.57,2.75-4.83,4.71-6.54
				c47.89-41.78,119.47-42.06,167.33-0.46c1.96,1.71,3.5,3.97,4.71,6.57c1.2,2.6,1.8,4.98,1.81,7.25c0,11.05,0,22.1,0,33.15
				c0,2.06-0.7,3.78-2.13,5.33c-1.43,1.54-3.29,2.4-5.54,2.4c-18.21-0.03-36.41-0.08-54.61-0.14
				C325.5,542.79,306.89,542.73,288.28,542.67z"/>
		</g>
		<path d="M799.93,708.96c-2.25,0-4.09-0.72-5.52-2.15c-1.43-1.43-2.15-3.27-2.15-5.52V501.91c0-2.25,0.71-4.09,2.15-5.52
			c1.43-1.43,3.27-2.15,5.52-2.15h41.1c2.25,0,4.09,0.72,5.52,2.15c1.43,1.43,2.15,3.27,2.15,5.52v199.38
			c0,2.25-0.72,4.09-2.15,5.52c-1.43,1.43-3.27,2.15-5.52,2.15H799.93z"/>
		<path d="M455.07,972.74c-2.05,0-3.84-0.72-5.37-2.15c-1.53-1.43-2.3-3.27-2.3-5.52V765.69c0-2.25,0.77-4.09,2.3-5.52
			c1.53-1.43,3.32-2.15,5.37-2.15h33.13c3.27,0,5.77,0.88,7.51,2.61c1.74,1.74,2.81,3.12,3.22,4.14l53.99,96.92l53.99-96.92
			c0.61-1.02,1.69-2.4,3.22-4.14c1.53-1.74,4.04-2.61,7.51-2.61h32.82c2.25,0,4.14,0.72,5.68,2.15c1.53,1.43,2.3,3.27,2.3,5.52
			v199.38c0,2.25-0.77,4.09-2.3,5.52c-1.54,1.43-3.43,2.15-5.68,2.15h-36.5c-2.25,0-4.14-0.72-5.67-2.15
			c-1.53-1.43-2.3-3.27-2.3-5.52V850.04l-34.66,64.11c-0.82,1.84-2.05,3.48-3.68,4.91c-1.64,1.44-3.89,2.15-6.75,2.15h-15.95
			c-2.86,0-5.11-0.71-6.75-2.15c-1.64-1.43-2.97-3.07-3.99-4.91l-34.66-64.11v115.03c0,2.25-0.72,4.09-2.15,5.52
			c-1.43,1.43-3.27,2.15-5.52,2.15H455.07z"/>
		<path d="M688.8,972.74c-1.64,0-3.12-0.66-4.45-1.99c-1.33-1.33-1.99-2.81-1.99-4.45c0-1.02,0.1-1.94,0.31-2.77l72.08-196.92
			c0.61-2.25,1.89-4.24,3.84-5.98c1.94-1.74,4.65-2.61,8.13-2.61h45.4c3.47,0,6.18,0.88,8.13,2.61c1.94,1.74,3.22,3.73,3.83,5.98
			l71.78,196.92c0.41,0.82,0.61,1.74,0.61,2.77c0,1.64-0.67,3.12-1.99,4.45c-1.33,1.33-2.92,1.99-4.76,1.99h-37.73
			c-3.07,0-5.37-0.77-6.9-2.3c-1.53-1.53-2.51-2.91-2.91-4.14l-11.96-31.29h-81.9l-11.66,31.29c-0.41,1.23-1.33,2.61-2.76,4.14
			c-1.43,1.53-3.89,2.3-7.36,2.3H688.8z M760.88,890.83h57.05l-28.83-80.98L760.88,890.83z"/>
		<path class="st12" d="M924.99,972.74c-2.25,0-4.09-0.72-5.52-2.15c-1.43-1.43-2.15-3.27-2.15-5.52v-37.74
			c0-2.24,0.71-4.14,2.15-5.67c1.43-1.53,3.27-2.3,5.52-2.3h37.73c2.04,0,3.83,0.77,5.37,2.3s2.3,3.43,2.3,5.67v37.74
			c0,2.25-0.77,4.09-2.3,5.52s-3.32,2.15-5.37,2.15H924.99z"/>
		<path d="M926.22,904.95c-2.25,0-4.09-0.77-5.52-2.3c-1.43-1.53-2.15-3.32-2.15-5.37V765.69c0-2.25,0.71-4.09,2.15-5.52
			c1.43-1.43,3.27-2.15,5.52-2.15h35.28c2.04,0,3.83,0.72,5.37,2.15c1.53,1.43,2.3,3.27,2.3,5.52v131.59c0,2.04-0.77,3.83-2.3,5.37
			c-1.53,1.53-3.32,2.3-5.37,2.3H926.22z"/>
		<path d="M316.21,800.02c-18.32,0-34.36-3.01-48.1-9.01c-13.74-6.01-24.38-15.27-31.91-27.79c-7.54-12.52-11.3-28.45-11.3-47.8
			V590.82c0-2.24,0.71-4.07,2.14-5.5c1.42-1.42,3.25-2.14,5.5-2.14h39.4c2.24,0,4.07,0.72,5.5,2.14c1.42,1.43,2.14,3.26,2.14,5.5
			v124.3c0,13.24,3.21,23.16,9.62,29.78c6.41,6.62,15.42,9.93,27.03,9.93c11.4,0,20.31-3.31,26.72-9.93
			c6.41-6.61,9.62-16.54,9.62-29.78v-124.3c0-2.24,0.76-4.07,2.29-5.5c1.53-1.42,3.31-2.14,5.34-2.14h39.7
			c2.03,0,3.82,0.72,5.34,2.14c1.53,1.43,2.29,3.26,2.29,5.5v124.61c0,19.35-3.77,35.28-11.3,47.8
			c-7.54,12.52-18.12,21.79-31.76,27.79C350.82,797.02,334.73,800.02,316.21,800.02z"/>
	</g>
</g>
</svg>
