<?xml version="1.0" encoding="utf-8"?>
<!-- Generator: Adobe Illustrator 25.2.1, SVG Export Plug-In . SVG Version: 6.00 Build 0)  -->
<svg version="1.1" xmlns="http://www.w3.org/2000/svg" xmlns:xlink="http://www.w3.org/1999/xlink" x="0px" y="0px"
	 viewBox="0 0 1209.6 1213.46" style="enable-background:new 0 0 1209.6 1213.46;" xml:space="preserve">
<style type="text/css">
	.st0{fill:none;stroke:#35A8E0;stroke-miterlimit:10;}
	.st1{display:none;}
	.st2{fill:none;stroke:#000000;stroke-miterlimit:10;}
	.st3{fill:#F6EB64;}
	.st4{fill:#1D1D1B;}
	.st5{fill:none;stroke:#1D1D1B;stroke-width:0.5;stroke-miterlimit:10;}
	.st6{fill:#FFFFFF;}
	.st7{fill:#E84639;}
	.st8{fill:#F9E8D5;}
	.st9{fill:#48B6A2;}
	.st10{fill:#29336B;}
	.st11{fill:#9458F4;}
	.st12{fill:#F75776;}
	.st13{opacity:0.2;fill:#009EE2;}
	.st14{opacity:0.19;}
	.st15{fill:#51BFDC;}
	.st16{fill:#6DBC8D;}
	.st17{fill:none;stroke:#F9E8D5;stroke-miterlimit:10;}
	.st18{fill:none;stroke:#35A8E0;stroke-width:0.75;stroke-miterlimit:10;}
	.st19{fill:#35A8E0;}
	.st20{opacity:0.49;}
	.st21{fill:none;stroke:#000000;stroke-width:0.75;stroke-miterlimit:10;}
	.st22{fill:none;stroke:#FFEC00;stroke-width:0.75;stroke-miterlimit:10;}
	.st23{fill:none;stroke:#F6EB64;stroke-width:3;stroke-miterlimit:10;}
	.st24{fill:none;stroke:#F75776;stroke-width:50;stroke-linejoin:round;stroke-miterlimit:10;}
	.st25{fill:none;stroke:#000000;stroke-width:18;stroke-miterlimit:10;}
</style>
<g id="guia">
</g>
<g id="Capa_3" class="st1">
</g>
<g id="Capa_4">
</g>
<g id="Capa_1">
	<g>
		<g>
			<g>
				<path class="st3" d="M490.16,454.74c-34.15-0.11-68.31-0.2-102.45-0.26c-4.23-0.01-7.72-1.6-10.39-4.45c-2.7-2.86-4-6.03-4-9.82
					c0-20.33,0-40.66,0-60.98c0-4.17,1.14-8.57,3.4-13.42c2.25-4.82,5.15-9.06,8.84-12.28c89.88-78.42,224.22-78.95,314.05-0.86
					c3.67,3.2,6.57,7.46,8.83,12.33c2.25,4.88,3.39,9.35,3.39,13.61c0,20.74,0,41.48,0,62.22c0,3.87-1.31,7.1-4,10.01
					c-2.69,2.9-6.18,4.5-10.4,4.5c-34.17-0.06-68.33-0.15-102.5-0.26C560,454.97,525.08,454.85,490.16,454.74z"/>
			</g>
		</g>
		<path class="st12" d="M799.9,767.51c-4.23,0-7.69-1.35-10.37-4.03c-2.69-2.68-4.03-6.14-4.03-10.36V682.3
			c0-4.21,1.34-7.77,4.03-10.65c2.68-2.88,6.14-4.32,10.37-4.32h70.81c3.83,0,7.19,1.44,10.07,4.32s4.32,6.44,4.32,10.65v70.82
			c0,4.23-1.44,7.68-4.32,10.36c-2.88,2.68-6.24,4.03-10.07,4.03H799.9z"/>
		<path d="M802.2,640.29c-4.23,0-7.69-1.44-10.37-4.32c-2.69-2.88-4.03-6.24-4.03-10.07V378.92c0-4.23,1.34-7.68,4.03-10.36
			c2.68-2.68,6.14-4.04,10.37-4.04h66.2c3.83,0,7.19,1.36,10.07,4.04c2.88,2.68,4.32,6.14,4.32,10.36V625.9
			c0,3.83-1.44,7.19-4.32,10.07s-6.24,4.32-10.07,4.32H802.2z"/>
		<path d="M542.57,937.74c-34.39,0-64.48-5.64-90.28-16.91c-25.79-11.27-45.76-28.66-59.9-52.16c-14.14-23.5-21.21-53.4-21.21-89.71
			V545.11c0-4.2,1.34-7.64,4.01-10.32c2.67-2.67,6.11-4.01,10.32-4.01h73.94c4.2,0,7.64,1.34,10.32,4.01
			c2.67,2.68,4.01,6.12,4.01,10.32V778.4c0,24.84,6.02,43.47,18.06,55.88c12.04,12.42,28.94,18.63,50.73,18.63
			c21.4,0,38.12-6.21,50.15-18.63c12.04-12.41,18.06-31.04,18.06-55.88V545.11c0-4.2,1.43-7.64,4.3-10.32
			c2.87-2.67,6.21-4.01,10.03-4.01h74.51c3.82,0,7.17,1.34,10.03,4.01c2.87,2.68,4.3,6.12,4.3,10.32v233.86
			c0,36.31-7.07,66.21-21.21,89.71c-14.14,23.5-34.01,40.89-59.61,52.16C607.52,932.1,577.33,937.74,542.57,937.74z"/>
	</g>
</g>
</svg>
